<svg width="23" height="16" viewBox="0 0 23 16" fill="none" xmlns="http://www.w3.org/2000/svg">
<path d="M1.91016 7C1.35787 7 0.910156 7.44772 0.910156 8C0.910156 8.55228 1.35787 9 1.91016 9L1.91016 7ZM22.6173 8.7071C23.0078 8.31658 23.0078 7.68341 22.6173 7.29289L16.2533 0.92893C15.8628 0.538406 15.2296 0.538406 14.8391 0.92893C14.4486 1.31945 14.4486 1.95262 14.8391 2.34314L20.4959 8L14.8391 13.6569C14.4486 14.0474 14.4486 14.6805 14.8391 15.0711C15.2296 15.4616 15.8628 15.4616 16.2533 15.0711L22.6173 8.7071ZM1.91016 9L21.9102 9L21.9102 7L1.91016 7L1.91016 9Z" fill="white"/>
</svg>
