<svg width="148" height="145" viewBox="0 0 148 145" fill="none" xmlns="http://www.w3.org/2000/svg">
<path d="M35.2291 85.8547C39.0779 85.8547 42.921 85.8547 46.7699 85.8547C52.5605 85.8547 58.3453 85.8547 64.1359 85.8547C64.6156 85.8719 65.0952 85.9005 65.5749 85.9005C91.0432 85.9005 116.506 85.889 141.974 85.9349C143.28 85.9349 143.604 85.6256 143.598 84.3254C143.552 63.8088 143.569 43.2923 143.563 22.7814C143.563 19.2131 141.772 16.6929 138.697 15.8681C137.761 15.6161 136.79 15.6562 135.831 15.6562C113.35 15.6562 90.8698 15.639 68.3893 15.6905C66.9676 15.6905 66.6267 15.3297 66.6903 13.9722C66.8058 11.3432 66.7249 11.3375 69.4411 11.3375C91.6326 11.3375 113.824 11.3547 136.016 11.3203C139.957 11.3203 143.274 12.5002 145.719 15.6791C147.36 17.8212 147.921 20.2727 147.921 22.9189C147.909 40.142 147.915 57.3652 147.915 74.5883C147.915 83.5121 147.915 92.4301 147.915 101.354C147.915 108.68 143.448 113.141 136.091 113.141C122.66 113.147 109.23 113.141 95.7993 113.141C95.2734 113.141 94.7418 113.181 94.2159 113.204C93.69 113.181 93.1641 113.141 92.6324 113.141C81.9123 113.141 71.1921 113.136 60.472 113.141C58.2124 113.141 55.9586 113.181 53.6989 113.204C51.0521 113.181 48.4111 113.147 45.7643 113.141C34.3565 113.136 22.9544 113.153 11.5465 113.136C5.92353 113.13 1.90131 110.237 0.410313 105.191C0.0866858 104.092 0 102.946 0 101.801C0 75.3787 0 48.9512 0 22.5294C0 18.1649 1.90131 14.8486 5.7097 12.6205C6.54189 12.1336 7.12557 12.0248 7.42608 13.1933C7.65146 14.0639 8.29294 14.8829 8.31028 15.7306C8.32761 16.6642 7.07356 16.7158 6.49565 17.3229C5.06245 18.8179 4.32851 20.5132 4.32851 22.5809C4.34585 43.2808 4.34585 63.9807 4.31117 84.6862C4.31117 85.7 4.57701 85.9521 5.57678 85.9234C8.70325 85.8375 11.8297 85.8604 14.9562 85.8432C21.7119 85.8432 28.4676 85.849 35.2233 85.8547H35.2291ZM73.9545 90.2077C51.2371 90.2077 28.5196 90.2192 5.80217 90.1791C4.61746 90.1791 4.27072 90.4311 4.30539 91.6397C4.39786 95.0705 4.32273 98.5071 4.34007 101.944C4.36896 106.159 7.02733 108.834 11.2865 108.834C53.0632 108.846 94.8342 108.846 136.611 108.834C140.87 108.834 143.529 106.159 143.557 101.944C143.581 98.5587 143.494 95.1679 143.598 91.7828C143.638 90.454 143.245 90.1734 141.951 90.1791C119.28 90.2192 96.6142 90.2077 73.943 90.2077H73.9545Z" fill="white"/>
<path d="M35.4687 86.0354C28.6803 86.0354 21.8919 86.0297 15.1036 86.0239C15.1094 84.3138 15.121 82.6037 15.1268 80.8936C18.3206 80.8936 21.5145 80.8936 24.7025 80.8936C27.966 80.8936 27.9254 80.8936 27.9022 77.6519C27.8964 76.7306 27.5944 76.5406 26.735 76.5521C22.8675 76.5924 18.9942 76.5694 15.1268 76.5694C15.1268 75.1299 15.1268 73.6904 15.1268 72.2509C16.7702 72.2509 18.4135 72.2509 20.0569 72.2509C23.3146 72.2509 23.274 72.2509 23.2508 69.0149C23.245 68.0994 22.943 67.8921 22.0836 67.9151C19.7666 67.967 17.4438 67.9324 15.1268 67.9324C15.1268 66.4929 15.1268 65.0477 15.1268 63.6082C18.3206 63.6082 21.5087 63.6082 24.7025 63.6082C27.9718 63.6082 27.9312 63.6082 27.9022 60.3665C27.8964 59.4394 27.5828 59.2609 26.7291 59.2667C22.8617 59.307 18.9942 59.284 15.121 59.284C15.121 57.8445 15.121 56.405 15.121 54.9597C16.7644 54.9597 18.4019 54.9597 20.0453 54.9597C23.3088 54.9597 23.2682 54.9597 23.2392 51.7122C23.2275 50.791 22.9198 50.5952 22.0661 50.6125C19.7492 50.6643 17.4322 50.6355 15.1152 50.6355C15.1152 49.196 15.121 47.7508 15.1268 46.3113C18.3148 46.3113 21.5087 46.3113 24.6967 46.3113C27.9718 46.3113 27.9312 46.3113 27.8964 43.058C27.8847 42.1252 27.5537 41.9583 26.7117 41.964C22.8443 42.0043 18.9768 41.987 15.1152 41.987C15.1152 40.5476 15.1268 39.1081 15.1326 37.6628C16.7702 37.6628 18.4135 37.6628 20.0511 37.6628C23.3204 37.6628 23.2798 37.6628 23.2392 34.4096C23.2275 33.4768 22.8965 33.2983 22.0545 33.3156C19.7433 33.3674 17.4264 33.3386 15.1094 33.3443C15.1152 31.9049 15.1268 30.4654 15.1326 29.0259C18.3671 29.0259 21.6074 29.0201 24.8419 29.0144C27.8905 29.0144 27.8441 29.0144 27.8905 26.0433C27.908 25.0126 27.6873 24.6268 26.5491 24.6556C22.7339 24.7362 18.9188 24.6901 15.1036 24.6959C15.1152 23.2564 15.121 21.8169 15.1326 20.3774C16.7702 20.3774 18.4019 20.3659 20.0395 20.3659C23.2972 20.3659 23.2624 20.3659 23.2333 17.1299C23.2275 16.2432 22.9546 15.9956 22.0894 16.0071C19.784 16.0474 17.4728 16.0014 15.1674 15.9899C15.1616 14.5676 15.15 13.1454 15.1442 11.729C18.3729 11.7232 21.6016 11.7117 24.8361 11.7117C27.9138 11.7117 27.8673 11.7117 27.8964 8.60815C27.908 7.57748 27.5712 7.33564 26.584 7.34716C22.7746 7.38746 18.971 7.34716 15.1616 7.32988C15.1442 5.22247 15.1442 3.11506 15.0978 1.00764C15.0919 0.270624 15.3475 0 16.1082 0C22.2462 0.0230318 28.3841 0.0172739 34.5221 0C35.1957 0 35.5093 0.22456 35.4629 0.915516C35.4338 1.34736 35.4629 1.77921 35.4629 2.21106C35.4629 30.1544 35.4745 58.0921 35.4745 86.0354H35.4687Z" fill="#005775"/>
<path d="M113.667 21.9095C120.797 21.9095 127.926 21.9328 135.05 21.8863C136.205 21.8805 136.613 22.1475 136.602 23.3953C136.538 29.1932 136.544 34.991 136.602 40.7947C136.613 41.938 136.291 42.263 135.154 42.263C120.757 42.2282 106.353 42.2282 91.9561 42.263C90.9047 42.263 90.5543 42.0077 90.5657 40.8992C90.6175 35.0549 90.6175 29.2048 90.5657 23.3547C90.5543 22.2229 90.853 21.8805 92.002 21.8921C99.2237 21.9444 106.451 21.9211 113.673 21.9211L113.667 21.9095Z" fill="#005775"/>
<path d="M94.2181 129.053C96.9119 129.076 99.6057 129.093 102.3 129.133C107.329 129.201 110.647 132.206 110.89 137.023C111.005 139.343 110.89 141.675 110.93 144.001C110.942 144.714 110.658 144.93 109.999 144.873C109.762 144.851 109.52 144.873 109.277 144.873C85.7378 144.873 62.1987 144.862 38.6597 144.902C37.3763 144.902 36.8965 144.64 36.9948 143.288C37.1278 141.493 37.0237 139.685 37.0295 137.878C37.0468 132.383 40.3361 129.162 45.9376 129.133C48.5331 129.116 51.1287 129.082 53.73 129.059C54.2098 129.082 54.6838 129.127 55.1636 129.127C67.702 129.127 80.2461 129.127 92.7845 129.127C93.2643 129.127 93.7383 129.082 94.2181 129.059V129.053ZM73.9972 140.569C83.044 140.569 92.0908 140.569 101.132 140.569C102.623 140.569 104.115 140.575 105.606 140.569C105.965 140.569 106.363 140.677 106.554 140.17C107.889 136.715 105.658 133.432 101.947 133.432C84.2868 133.432 66.6325 133.432 48.9725 133.432C47.7701 133.432 46.5677 133.403 45.3653 133.437C42.9201 133.511 41.4517 134.977 41.3824 137.371C41.365 137.941 41.4575 138.522 41.365 139.075C41.1338 140.415 41.7697 140.603 42.9663 140.598C53.3138 140.552 63.6555 140.575 74.0029 140.575L73.9972 140.569Z" fill="white"/>
<path d="M46.8191 74.7034C46.8133 58.3632 46.8017 42.0172 46.7959 25.677C49.3079 27.1614 51.8546 28.6054 54.326 30.1591C55.1826 30.6963 55.7961 30.6386 56.6238 30.1303C59.1068 28.5939 61.642 27.1441 64.1539 25.6597C64.1481 42.0114 64.1366 58.3632 64.1308 74.715C58.3602 74.715 52.5896 74.7092 46.8191 74.7034ZM53.2552 42.6872C53.2552 44.0792 53.2552 45.477 53.2552 46.869C53.2552 49.9707 53.2552 49.9303 56.3344 49.9592C57.3126 49.9707 57.6599 49.7397 57.6425 48.7C57.5788 45.3384 57.6193 41.971 57.6193 38.6036C57.6193 35.3575 57.6193 35.3979 54.3434 35.4384C53.3941 35.4499 53.2263 35.8023 53.2437 36.6282C53.29 38.644 53.261 40.6656 53.261 42.6872H53.2552ZM57.6136 66.5535C57.6136 65.6409 57.5673 64.7283 57.6251 63.8157C57.683 62.932 57.1216 62.7934 56.537 62.9724C55.4604 63.3074 53.7067 62.0078 53.3536 63.6771C52.9543 65.5601 53.2668 67.5932 53.261 69.5628C53.261 69.9787 53.4462 70.2039 53.8572 70.1924C55.0495 70.1577 56.4328 70.614 57.3763 70.0018C58.0708 69.5512 57.521 68.2054 57.6136 67.264C57.6367 67.0271 57.6136 66.7846 57.6136 66.542V66.5535ZM55.4489 54.268C53.0064 54.3027 53.2726 53.9561 53.261 56.0528C53.2437 58.6289 53.261 58.6289 55.0784 58.6289C56.7685 58.6289 57.6136 58.0147 57.6136 56.7864C57.6136 55.1075 56.892 54.268 55.4489 54.268Z" fill="#005775"/>
<path d="M94.3173 128.984C93.8348 129.007 93.3582 129.053 92.8757 129.053C80.2677 129.053 67.6539 129.053 55.0459 129.053C54.5635 129.053 54.0868 129.007 53.6044 128.984C53.6044 123.744 53.5927 118.51 53.5869 113.27C55.8597 113.247 58.1267 113.213 60.3995 113.207C71.1823 113.201 81.9651 113.207 92.7478 113.207C93.2768 113.207 93.8058 113.247 94.3405 113.27C94.3347 118.51 94.3289 123.744 94.3231 128.984H94.3173Z" fill="#005775"/>
<path d="M79.4988 50.6048C79.4988 59.0268 79.5215 67.443 79.4705 75.865C79.4648 76.9221 79.6916 77.2265 80.7687 77.1978C83.7901 77.1289 83.7504 77.1863 83.7731 80.323C83.7788 81.2479 83.5577 81.5237 82.6167 81.5065C79.0794 81.449 75.5364 81.4605 71.9934 81.5007C71.2224 81.5065 70.9617 81.3399 70.9504 80.4954C70.9163 77.1978 70.8823 77.1634 74.0682 77.1863C74.9468 77.1863 75.2529 77.0197 75.2529 76.0374C75.2189 59.0555 75.2189 42.0737 75.2529 25.0919C75.2529 24.0981 74.9298 23.9429 74.0625 23.9487C70.922 23.9659 70.9504 23.9372 70.9504 20.7431C70.9504 19.8871 71.1261 19.6056 72.0274 19.6228C75.6157 19.6803 79.2041 19.6745 82.7924 19.6228C83.6654 19.6113 83.7504 19.9675 83.7618 20.7028C83.7958 23.9372 83.8184 23.9832 80.695 23.9372C79.6916 23.92 79.4592 24.2072 79.4648 25.2011C79.5045 33.669 79.4875 42.1369 79.4875 50.6048H79.4988Z" fill="white"/>
<path d="M113.338 64.7934C106.532 64.7934 99.7258 64.779 92.9338 64.8006C90.8229 64.8077 89.9614 64.6607 90.0045 64.0975C90.1193 62.1604 90.0906 60.2197 90.0045 58.2826C89.9757 57.7876 90.5788 57.6011 92.6466 57.6011C106.489 57.619 120.346 57.619 134.188 57.6011C136.328 57.6011 136.787 57.8235 136.773 58.3006C136.701 60.209 136.644 62.1173 136.802 64.0257C136.859 64.6929 135.739 64.8113 133.413 64.8006C126.736 64.7719 120.044 64.7898 113.353 64.7898L113.338 64.7934Z" fill="#005775"/>
<path d="M48.3066 21.3657C50.6266 17.4527 52.9638 13.5455 55.2606 9.61511C55.8739 8.56161 56.1573 9.2215 56.4871 9.7714C58.7955 13.6439 61.098 17.5163 63.4006 21.3888C61.179 22.7028 58.9459 23.9936 56.7532 25.3423C56.0995 25.7475 55.6077 25.7765 54.9424 25.3597C52.7556 23.9936 50.5224 22.6912 48.3124 21.3657H48.3066Z" fill="#005775"/>
<path d="M64.1482 86.0292C58.3621 86.0292 52.5819 86.0292 46.7959 86.0292C46.8074 83.5176 46.819 81.012 46.8363 78.5004C52.5935 78.5004 58.3506 78.4943 64.1077 78.4883C64.1251 81.006 64.1366 83.5176 64.1539 86.0353L64.1482 86.0292Z" fill="#005775"/>
<path d="M48.0484 21.1318C50.2359 22.4198 52.4348 23.6796 54.5937 25.0126C55.2506 25.4175 55.736 25.3894 56.3814 24.9957C58.5461 23.6796 60.7564 22.431 62.9439 21.1543C63.4522 21.9642 63.8977 22.8247 64.4917 23.5728C65.1885 24.4445 64.9886 24.9901 64.0633 25.4344C61.5846 26.8798 59.0772 28.2915 56.6327 29.7875C55.816 30.2881 55.2106 30.3443 54.3653 29.8156C51.9265 28.3027 49.4192 26.8967 46.9347 25.4512C45.8895 24.9732 45.7753 24.3714 46.5178 23.4715C47.106 22.7572 47.5401 21.9136 48.0427 21.1318H48.0484Z" fill="#00ADE8"/>
<path d="M64.151 78.4782C58.365 78.4782 52.579 78.4833 46.793 78.4883C46.793 77.2305 46.793 75.9727 46.793 74.7148C52.579 74.7148 58.365 74.7199 64.151 74.7249C64.151 75.9777 64.151 77.2254 64.151 78.4782Z" fill="#00ADE8"/>
<path d="M15.2851 7.54688C19.0677 7.55873 22.8446 7.60614 26.6272 7.56466C27.6075 7.5528 27.9361 7.80173 27.9304 8.86266C27.9015 12.0513 27.9477 12.0513 24.8916 12.0573C21.6856 12.0573 18.4796 12.0691 15.2678 12.0751C15.2101 11.8972 15.1525 11.7194 15.1006 11.5416C15.2851 10.374 15.2851 9.20642 15.1006 8.04474L15.2851 7.5528V7.54688Z" fill="#00ADE8"/>
<path d="M15.2131 58.8847C19.0586 58.8847 22.9042 58.9088 26.7554 58.8667C27.6042 58.8547 27.9102 59.0469 27.9218 60.0137C27.9507 63.3944 27.9911 63.3944 24.7403 63.3944C21.5646 63.3944 18.3946 63.3944 15.2189 63.3944C15.0572 61.8932 15.0572 60.392 15.2189 58.8907L15.2131 58.8847Z" fill="#00ADE8"/>
<path d="M15.2219 76.2431C19.0678 76.2431 22.9195 76.2671 26.7655 76.2251C27.6201 76.2131 27.9146 76.4172 27.9262 77.372C27.9493 80.7528 27.9897 80.7528 24.7443 80.7528C21.5682 80.7528 18.3922 80.7528 15.2219 80.7528C15.0602 79.2516 15.0602 77.7503 15.2219 76.2431Z" fill="#00ADE8"/>
<path d="M15.236 42.2833C19.0741 42.2833 22.9122 42.2983 26.7446 42.2633C27.5802 42.2583 27.9087 42.4032 27.9202 43.2129C27.9548 46.0367 27.9952 46.0367 24.7448 46.0367C21.581 46.0367 18.4114 46.0367 15.2475 46.0367C15.2014 45.9567 15.161 45.8767 15.1149 45.8018C15.2533 44.7322 15.2936 43.6577 15.0977 42.5882L15.236 42.2833Z" fill="#00ADE8"/>
<path d="M15.2303 24.9409C19.0186 24.9409 22.8068 24.9757 26.5951 24.9061C27.7253 24.8862 27.9386 25.2143 27.9271 26.104C27.8809 28.6688 27.9271 28.6688 24.8999 28.6688C21.6882 28.6688 18.4765 28.6738 15.2591 28.6788C15.2072 28.5197 15.1553 28.3606 15.0977 28.2016C15.2822 27.2224 15.2822 26.2482 15.0977 25.269L15.2303 24.9409Z" fill="#00ADE8"/>
<path d="M15.2988 15.8486C17.6133 15.8605 19.9336 15.914 22.2481 15.8665C23.1226 15.8486 23.3908 16.1042 23.3966 17.0252C23.4258 20.3649 23.4608 20.359 20.1901 20.3649C18.5519 20.3649 16.9079 20.3709 15.2638 20.3768C15.2114 20.1926 15.1531 20.0084 15.1006 19.8242C15.2871 18.6535 15.2871 17.4828 15.1006 16.3181L15.2988 15.8546V15.8486Z" fill="#00ADE8"/>
<path d="M15.2233 67.9419C17.5547 67.9419 19.892 67.978 22.2235 67.9239C23.0883 67.9059 23.3863 68.1163 23.3979 69.0722C23.4213 72.457 23.4622 72.451 20.1842 72.451C18.5306 72.451 16.8769 72.451 15.2233 72.451C15.0597 70.948 15.0597 69.445 15.2233 67.9419Z" fill="#00ADE8"/>
<path d="M15.2375 50.59C17.5632 50.59 19.8889 50.62 22.2146 50.566C23.0714 50.548 23.3803 50.7459 23.392 51.7113C23.4269 55.0931 23.4677 55.0931 20.1862 55.0931C18.5366 55.0931 16.8929 55.0931 15.2434 55.0931C15.1967 54.9912 15.1501 54.8952 15.1093 54.7933C15.2667 53.5101 15.29 52.227 15.0977 50.9438L15.2375 50.59Z" fill="#00ADE8"/>
<path d="M15.2317 33.2377C17.5569 33.2377 19.8763 33.2617 22.2015 33.2077C23.0465 33.1897 23.3786 33.3756 23.3903 34.3469C23.4311 37.7347 23.4719 37.7347 20.1909 37.7347C18.5476 37.7347 16.8984 37.7347 15.255 37.7347C15.2026 37.5369 15.1501 37.345 15.0977 37.1471C15.2841 35.9659 15.2841 34.7907 15.0977 33.6094L15.2317 33.2317V33.2377Z" fill="#00ADE8"/>
</svg>
