<svg width="67" height="67" viewBox="0 0 67 67" fill="none" xmlns="http://www.w3.org/2000/svg">
<path d="M67 33.7075C67 15.0862 51.9941 0 33.5 0C14.9933 0 0 15.0862 0 33.7075C0 50.5276 12.2463 64.474 28.2656 67V43.4532H19.7587V33.7096H28.2656V26.2792C28.2656 17.8334 33.2592 13.1691 40.914 13.1691C44.5801 13.1691 48.418 13.8264 48.418 13.8264V22.1206H44.1865C40.0325 22.1206 38.7344 24.7224 38.7344 27.3874V33.7075H48.0243L46.5315 43.4511H38.7344V66.9979C54.7411 64.4719 67 50.5255 67 33.7054V33.7075Z" fill="white"/>
</svg>
