<svg width="150" height="151" viewBox="0 0 150 151" fill="none" xmlns="http://www.w3.org/2000/svg">
<path d="M49.7122 9.7966C62.3072 9.7966 74.8963 9.79055 87.4913 9.81475C88.3466 9.81475 88.9791 9.59086 89.6477 9.0402C100.46 0.0662762 112.639 -2.43892 125.776 2.4807C138.902 7.38823 146.618 17.2638 148.955 31.1271C150.244 38.7939 148.858 46.1583 145.262 53.0627C144.756 54.0309 144.533 54.9809 144.54 56.0701C144.564 78.1933 144.558 100.323 144.558 122.446C144.558 130.621 139.582 135.625 131.457 135.631C121.018 135.631 110.585 135.649 100.147 135.601C99.0262 135.601 98.713 135.855 98.7552 136.993C98.8516 139.407 98.8214 141.834 98.7672 144.248C98.7492 145.107 98.9961 145.343 99.8454 145.325C102.351 145.271 104.863 145.343 107.369 145.283C108.23 145.265 108.435 145.525 108.441 146.372C108.483 150.148 108.513 150.148 104.797 150.148C84.0278 150.148 63.2529 150.136 42.484 150.178C41.2432 150.178 40.8998 149.906 40.936 148.635C41.0324 145.307 40.9661 145.307 44.285 145.307C46.0921 145.307 47.8991 145.271 49.7061 145.325C50.435 145.343 50.6398 145.12 50.6277 144.399C50.5856 141.931 50.5434 139.456 50.6398 136.993C50.688 135.843 50.3567 135.601 49.2484 135.607C38.5627 135.655 27.8771 135.649 17.1915 135.631C10.8849 135.619 6.06015 131.522 5.00002 125.314C4.84943 124.43 4.85546 123.511 4.85546 122.603C4.84943 102.495 4.84341 82.3807 4.8675 62.2726C4.8675 61.1531 4.63861 60.3665 3.75316 59.5496C1.31366 57.3046 0.0487359 54.4181 0.0366889 51.09C0.00054819 41.3112 -0.0235457 31.5325 0.0366889 21.7538C0.0788532 15.0309 5.42769 9.82686 12.2282 9.8087C24.7208 9.77845 37.2135 9.80265 49.7061 9.7966H49.7122ZM9.65615 63.035V64.5176C9.65615 83.8209 9.65615 103.124 9.65615 122.428C9.65615 127.976 12.451 130.79 17.9685 130.79C55.7959 130.79 93.6292 130.79 131.457 130.79C136.89 130.79 139.733 127.958 139.733 122.536C139.733 102.628 139.733 82.7196 139.733 62.8111V61.1773C138.353 62.4118 137.185 63.5554 135.902 64.5599C135.149 65.1469 134.89 65.752 134.89 66.7021C134.92 81.2673 134.914 95.8325 134.914 110.398C134.914 114.519 133.167 116.273 129.059 116.273C92.8341 116.273 56.609 116.273 20.39 116.273C16.1796 116.273 14.4749 114.549 14.4749 110.313C14.4749 94.9914 14.4629 79.6698 14.499 64.3481C14.499 63.3194 14.3063 62.914 13.21 63.0169C12.0716 63.1258 10.9211 63.0411 9.65615 63.0411V63.035ZM95.2194 67.876C92.8221 66.3571 90.8765 64.9835 89.1237 63.3558C88.696 62.9564 88.1961 63.0411 87.7082 63.0411C79.3295 63.0411 70.9509 63.0532 62.5722 63.0169C61.7109 63.0169 61.2109 63.3013 60.723 63.979C59.2232 66.0546 57.7414 68.1604 56.091 70.1149C52.4408 74.4355 45.6222 73.1466 43.773 67.8578C43.3514 66.6416 43.3032 65.3829 43.3875 64.1243C43.4417 63.3013 43.2309 63.0108 42.3394 63.0169C35.0149 63.0532 27.6904 63.0532 20.3598 63.0169C19.5407 63.0169 19.2575 63.1863 19.2575 64.0698C19.2877 79.4943 19.2877 94.9188 19.2515 110.343C19.2515 111.366 19.625 111.463 20.4622 111.445C22.8174 111.396 25.1786 111.366 27.5338 111.457C28.6301 111.499 28.9493 111.251 28.9433 110.083C28.877 102.925 28.9373 95.766 28.883 88.6135C28.877 87.5182 29.0939 87.1854 30.2504 87.2035C35.7679 87.2761 41.2914 87.2701 46.8089 87.2035C47.9051 87.1914 48.2244 87.4214 48.2123 88.5832C48.1461 95.0822 48.1822 101.587 48.1822 108.092C48.1822 111.439 48.1822 111.372 51.4831 111.469C52.7299 111.505 53.0371 111.197 53.0311 109.926C52.9709 99.5903 53.019 89.2609 52.9709 78.9255C52.9709 77.806 53.2118 77.5095 54.3502 77.5277C59.8677 77.5942 65.3912 77.5942 70.9087 77.5277C72.0231 77.5156 72.3062 77.7758 72.3001 78.9134C72.2459 88.6437 72.27 98.368 72.27 108.098C72.27 111.439 72.27 111.372 75.5769 111.469C76.8358 111.505 77.1189 111.172 77.1189 109.92C77.0707 96.359 77.1008 82.8043 77.0587 69.2436C77.0587 68.112 77.3177 67.8094 78.4441 67.8518C81.1486 67.9426 83.8652 67.882 86.5697 67.882C89.2983 67.882 92.033 67.882 95.1953 67.882L95.2194 67.876ZM84.2085 58.1941C74.6794 43.6167 74.6794 29.1967 84.2085 14.6376C79.9078 14.6376 75.6673 14.6376 71.4207 14.6376C51.7481 14.6376 32.0755 14.6376 12.4029 14.6376C8.12017 14.6376 4.87353 17.6571 4.85546 21.784C4.80727 31.5144 4.83739 41.2447 4.84341 50.975C4.84341 52.0582 5.06025 53.0869 5.75898 54.2548C8.00573 47.7074 12.1438 43.1871 18.2034 40.4641C13.2401 33.832 13.2823 27.5327 18.2516 22.7825C22.6909 18.5406 29.6239 18.353 34.2981 22.3468C39.5988 26.8731 39.7915 33.0937 34.8222 40.5125C36.84 41.4141 38.7675 42.4791 40.418 43.9496C40.9661 44.4397 41.2793 44.1614 41.6829 43.8164C43.0261 42.6728 44.4898 41.6925 46.1041 40.9784C46.9775 40.5911 47.2365 40.4157 46.4474 39.5201C43.761 36.4582 42.8153 32.8698 43.6827 28.8458C45.062 22.4618 51.459 18.3954 57.9944 19.7508C64.1986 21.0337 68.3849 27.333 67.2645 33.5839C66.7887 36.2524 65.4635 38.4309 63.6625 40.4036C71.0171 43.9072 75.5588 49.4501 76.8177 57.5042C76.9382 58.2667 77.4141 58.1699 77.908 58.1699C79.962 58.1699 82.022 58.1699 84.1965 58.1699L84.2085 58.1941ZM96.3759 68.5477C96.3759 81.7938 96.3759 94.7978 96.3759 107.802C96.3759 111.475 96.3759 111.433 99.996 111.457C100.996 111.463 101.225 111.172 101.219 110.204C101.171 104.558 101.219 98.9126 101.171 93.2668C101.159 92.2502 101.466 92.0384 102.417 92.0445C108.037 92.0868 113.657 92.0929 119.277 92.0445C120.295 92.0324 120.494 92.3531 120.488 93.3031C120.446 98.9005 120.506 104.498 120.434 110.089C120.416 111.269 120.765 111.499 121.849 111.457C124.156 111.372 126.469 111.348 128.77 111.463C129.963 111.523 130.125 111.106 130.125 110.035C130.089 96.6252 130.101 83.2158 130.095 69.8063C130.095 69.4372 130.252 69.0257 129.921 68.6385C118.795 74.0966 107.658 74.0906 96.3819 68.5477H96.3759ZM81.9256 36.319C81.6124 53.1716 95.9001 68.82 114.928 67.8699C129.27 67.1499 146.31 54.2548 144.323 33.0695C142.979 18.7887 130.818 5.14323 113.344 4.9859C95.8699 4.82857 81.8714 19.0852 81.9256 36.319ZM65.4695 58.303V58.188C67.3248 58.188 69.186 58.1336 71.0412 58.2122C72.0231 58.2546 72.0712 57.8794 71.9146 57.0746C70.3907 49.4077 63.277 43.6409 55.3501 43.6712C47.4955 43.7015 40.43 49.4804 38.9362 57.0746C38.7796 57.8734 38.8278 58.2425 39.8096 58.2122C42.1166 58.1396 44.4296 58.2425 46.7306 58.1638C47.8389 58.1275 48.3147 58.3393 48.2304 59.598C48.1039 61.4557 48.2063 63.3255 48.1943 65.1893C48.1882 66.4419 48.7183 67.3435 49.9049 67.7368C51.0614 68.118 51.9649 67.6279 52.6637 66.7142C53.519 65.5947 54.3442 64.4571 55.1935 63.3316C56.4645 61.6493 57.4222 59.2954 59.1148 58.4845C60.8616 57.6434 63.3192 58.297 65.4695 58.297V58.303ZM91.5571 92.0687C91.5571 86.0235 91.533 79.9723 91.5812 73.9272C91.5873 72.9348 91.3283 72.6625 90.3464 72.6927C87.8889 72.7654 85.4313 72.7533 82.9737 72.6927C82.1124 72.6746 81.9015 72.9348 81.9015 73.782C81.9256 85.9812 81.9256 98.1743 81.9015 110.374C81.9015 111.227 82.1304 111.475 82.9797 111.451C85.4373 111.396 87.8949 111.378 90.3525 111.451C91.3463 111.481 91.5873 111.184 91.5752 110.21C91.527 104.165 91.5511 98.1138 91.5511 92.0687H91.5571ZM74.6493 145.307C80.7209 145.307 86.7926 145.295 92.8582 145.325C93.6413 145.325 94.0087 145.228 93.9846 144.297C93.9183 141.731 93.9244 139.153 93.9846 136.587C94.0027 135.734 93.6774 135.619 92.9486 135.619C80.7571 135.637 68.5656 135.643 56.3741 135.613C55.5308 135.613 55.3923 135.904 55.4043 136.648C55.4405 139.117 55.4826 141.592 55.3923 144.055C55.3501 145.168 55.7296 145.343 56.7355 145.337C62.7048 145.289 68.674 145.313 74.6433 145.313L74.6493 145.307ZM22.3476 58.1941C25.8051 58.1941 29.2685 58.1759 32.726 58.2062C33.5392 58.2122 33.9488 58.1094 34.0753 57.123C34.4427 54.2487 35.4305 51.5438 37.0689 49.1596C37.7978 48.1007 37.4303 47.665 36.6232 47.0478C27.2928 39.9558 13.5413 44.5849 10.3067 55.9188C9.72844 57.9581 9.83686 58.1517 11.9631 58.1699C15.4206 58.2062 18.8841 58.182 22.3416 58.182L22.3476 58.1941ZM67.4693 97.0428C67.4693 92.5044 67.4633 87.972 67.4814 83.4336C67.4814 82.7498 67.4513 82.3384 66.5477 82.3626C63.9396 82.4352 61.3314 82.417 58.7233 82.3686C57.9703 82.3565 57.8197 82.6228 57.8258 83.3187C57.8438 92.3894 57.8499 101.46 57.8258 110.531C57.8258 111.281 58.0667 111.451 58.7654 111.439C61.2712 111.402 63.783 111.366 66.2887 111.451C67.3127 111.487 67.5055 111.136 67.4994 110.192C67.4512 105.811 67.4753 101.424 67.4753 97.0367L67.4693 97.0428ZM43.3815 101.751C43.3815 98.8763 43.3514 96.008 43.3996 93.1337C43.4176 92.2805 43.1767 92.0324 42.3214 92.0505C39.8156 92.105 37.3038 92.105 34.7981 92.0505C33.9427 92.0324 33.7199 92.2805 33.7259 93.1337C33.762 98.8763 33.762 104.625 33.7259 110.368C33.7259 111.221 33.9488 111.469 34.8041 111.451C37.3099 111.396 39.8216 111.396 42.3274 111.451C43.1827 111.469 43.4176 111.221 43.3996 110.368C43.3454 107.499 43.3815 104.625 43.3815 101.751ZM26.552 38.8302C30.4853 38.8121 33.7259 35.5626 33.7379 31.6172C33.756 27.5992 30.4793 24.3074 26.4797 24.3195C22.5464 24.3316 19.3118 27.5871 19.2937 31.5325C19.2756 35.5505 22.5524 38.8484 26.552 38.8302ZM48.2003 31.4841C48.1641 35.4416 51.3385 38.7516 55.2598 38.8302C59.2654 38.9089 62.6084 35.6655 62.6445 31.6656C62.6807 27.7021 59.5063 24.3981 55.585 24.3255C51.5734 24.2529 48.2364 27.4843 48.2003 31.4901V31.4841ZM115.645 104.316C115.645 102.15 115.615 99.9837 115.663 97.8173C115.681 97.0851 115.452 96.8854 114.735 96.8975C112.127 96.9399 109.519 96.9399 106.911 96.8975C106.182 96.8854 105.989 97.1093 105.995 97.8294C106.025 102.059 106.025 106.295 105.995 110.525C105.995 111.257 106.206 111.457 106.923 111.445C109.531 111.402 112.139 111.402 114.747 111.445C115.476 111.457 115.681 111.233 115.663 110.513C115.621 108.449 115.645 106.38 115.645 104.316Z" fill="white"/>
<path d="M67.4589 123.474C67.4891 124.775 66.447 125.895 65.152 125.943C63.8629 125.997 62.7305 124.963 62.6582 123.662C62.5799 122.3 63.6762 121.132 65.0375 121.12C66.3386 121.108 67.4288 122.167 67.4589 123.474Z" fill="white"/>
<path d="M77.0958 123.535C77.0958 124.836 76.0236 125.925 74.7286 125.943C73.3733 125.961 72.2529 124.812 72.2951 123.45C72.3373 122.143 73.4335 121.096 74.7346 121.121C76.0357 121.145 77.0958 122.234 77.0958 123.535Z" fill="white"/>
<path d="M84.3158 125.943C83.0208 125.937 81.9426 124.86 81.9245 123.559C81.9065 122.191 83.0509 121.072 84.4062 121.12C85.7073 121.169 86.7493 122.276 86.7252 123.577C86.7011 124.878 85.6049 125.949 84.3158 125.943Z" fill="white"/>
<path d="M113.008 63.0349C98.419 62.9804 86.6733 50.9264 86.7395 36.0828C86.8058 21.5357 98.8226 9.74197 113.514 9.80248C128.03 9.86299 139.8 21.9291 139.734 36.6879C139.668 51.2532 127.657 63.0954 113.008 63.0409V63.0349ZM101.196 36.3914C101.184 43.0659 106.611 48.518 113.249 48.518C119.82 48.518 125.241 43.1143 125.284 36.5246C125.326 29.838 119.941 24.3556 113.309 24.3254C106.665 24.2951 101.214 29.7291 101.202 36.3914H101.196Z" fill="#B58120"/>
<path d="M101.195 36.3914C101.207 29.729 106.658 24.2951 113.302 24.3253C119.934 24.3556 125.318 29.838 125.276 36.5245C125.234 43.1143 119.819 48.518 113.241 48.518C106.604 48.518 101.176 43.0598 101.188 36.3914H101.195ZM120.458 36.4459C120.47 32.4884 117.265 29.2086 113.338 29.1663C109.332 29.1179 106.025 32.3855 106.013 36.3914C106.001 40.3428 109.212 43.6286 113.133 43.6771C117.133 43.7255 120.445 40.4578 120.458 36.4519V36.4459Z" fill="white"/>
</svg>
