<svg width="67" height="67" viewBox="0 0 67 67" fill="none" xmlns="http://www.w3.org/2000/svg">
<path fill-rule="evenodd" clip-rule="evenodd" d="M66.4183 33.2091C66.4183 51.55 51.55 66.4183 33.2091 66.4183C14.8682 66.4183 0 51.55 0 33.2091C0 14.8682 14.8682 0 33.2091 0C51.55 0 66.4183 14.8682 66.4183 33.2091ZM52.5056 25.2007C52.4839 23.5658 52.178 21.9472 51.6018 20.4173C51.1022 19.1268 50.339 17.9548 49.3611 16.9762C48.3831 15.9976 47.212 15.2339 45.9224 14.7338C44.4132 14.1669 42.8189 13.8604 41.2072 13.8273C39.1322 13.7344 38.4743 13.7085 33.2069 13.7085C27.9394 13.7085 27.2643 13.7085 25.2043 13.8273C23.5934 13.8606 21.9998 14.1672 20.4913 14.7338C19.2015 15.2335 18.0302 15.9971 17.0522 16.9758C16.0743 17.9544 15.3112 19.1266 14.8119 20.4173C14.2442 21.9264 13.9385 23.5215 13.9081 25.1337C13.8153 27.2124 13.7873 27.8708 13.7873 33.142C13.7873 38.4131 13.7873 39.0866 13.9081 41.1502C13.9404 42.7648 14.2446 44.3578 14.8119 45.8709C15.312 47.1612 16.0757 48.3329 17.0539 49.3112C18.0322 50.2894 19.2037 51.0527 20.4934 51.5522C21.9978 52.1419 23.5917 52.4704 25.2065 52.5236C27.2837 52.6164 27.9416 52.6445 33.209 52.6445C38.4764 52.6445 39.1516 52.6445 41.2115 52.5236C42.8231 52.4918 44.4176 52.186 45.9267 51.6191C47.216 51.1185 48.3868 50.3546 49.3647 49.3761C50.3425 48.3975 51.1059 47.2258 51.6061 45.9357C52.1734 44.4247 52.4776 42.8317 52.5099 41.2149C52.6027 39.1384 52.6307 38.4801 52.6307 33.2067L52.6307 33.1347V33.1345C52.6264 27.9294 52.6259 27.2569 52.5056 25.2007ZM33.1939 43.1101C27.6849 43.1101 23.2221 38.6441 23.2221 33.1312C23.2221 27.6182 27.6849 23.1522 33.1939 23.1522C35.8386 23.1522 38.375 24.2035 40.2451 26.075C42.1152 27.9464 43.1658 30.4846 43.1658 33.1312C43.1658 35.7778 42.1152 38.3159 40.2451 40.1874C38.375 42.0588 35.8386 43.1101 33.1939 43.1101ZM43.5627 25.11C43.2572 25.1103 42.9547 25.0503 42.6725 24.9334C42.3902 24.8166 42.1338 24.6452 41.9178 24.4291C41.7018 24.213 41.5306 23.9563 41.4138 23.6739C41.2971 23.3914 41.2371 23.0887 41.2374 22.7831C41.2374 22.4776 41.2975 22.1752 41.4143 21.893C41.5311 21.6108 41.7023 21.3544 41.9181 21.1385C42.134 20.9225 42.3902 20.7512 42.6722 20.6343C42.9541 20.5174 43.2564 20.4572 43.5616 20.4572C43.8668 20.4572 44.169 20.5174 44.451 20.6343C44.733 20.7512 44.9892 20.9225 45.205 21.1385C45.4208 21.3544 45.592 21.6108 45.7088 21.893C45.8256 22.1752 45.8858 22.4776 45.8858 22.7831C45.8858 24.0696 44.8461 25.11 43.5627 25.11ZM39.6827 33.1303C39.6827 36.7057 36.7738 39.6042 33.1856 39.6042C29.5974 39.6042 26.6886 36.7057 26.6886 33.1303C26.6886 29.5548 29.5974 26.6564 33.1856 26.6564C36.7738 26.6564 39.6827 29.5548 39.6827 33.1303Z" fill="white"/>
</svg>
