<svg width="67" height="67" viewBox="0 0 67 67" fill="none" xmlns="http://www.w3.org/2000/svg">
<path d="M33.4182 0C15.1926 0 0.418213 14.9982 0.418213 33.5C0.418213 52.0018 15.1926 67 33.4182 67C51.6438 67 66.4182 52.0018 66.4182 33.5C66.4182 14.9982 51.6438 0 33.4182 0ZM25.3401 47.3851H18.6576V25.5542H25.3401V47.3851ZM21.9576 22.8742C19.847 22.8742 18.4823 21.3562 18.4823 19.4789C18.4823 17.5631 19.8882 16.0905 22.0435 16.0905C24.1988 16.0905 25.5188 17.5631 25.5601 19.4789C25.5601 21.3562 24.1988 22.8742 21.9576 22.8742ZM49.7463 47.3851H43.0638V35.2867C43.0638 32.4706 42.0945 30.5583 39.6779 30.5583C37.832 30.5583 36.7354 31.8529 36.2507 33.0987C36.072 33.5419 36.0273 34.17 36.0273 34.7946V47.3816H29.3413V32.5159C29.3413 29.7906 29.2554 27.5119 29.166 25.5507H34.972L35.2779 28.5832H35.412C36.292 27.1594 38.4473 25.0587 42.0532 25.0587C46.4498 25.0587 49.7463 28.0493 49.7463 34.4771V47.3851Z" fill="white"/>
</svg>
