<svg width="58" height="24" viewBox="0 0 58 24" fill="none" xmlns="http://www.w3.org/2000/svg">
<path d="M20.8469 18.1716C20.8464 18.8184 20.9734 19.4589 21.2207 20.0565C21.468 20.6541 21.8307 21.1971 22.2881 21.6545C22.7455 22.1118 23.2886 22.4744 23.8864 22.7217C24.4841 22.9689 25.1248 23.0959 25.7717 23.0954H30.6943V13.2479H25.7717C25.1249 13.2476 24.4843 13.3748 23.8867 13.6222C23.2891 13.8695 22.7461 14.2322 22.2887 14.6894C21.8314 15.1467 21.4686 15.6896 21.2212 16.2871C20.9738 16.8846 20.8466 17.525 20.8469 18.1716Z" fill="#3A60FF"/>
<path d="M24.7401 18.285C24.7397 18.676 24.8165 19.0633 24.9661 19.4247C25.1156 19.786 25.3349 20.1144 25.6115 20.3909C25.8881 20.6674 26.2165 20.8867 26.5779 21.0362C26.9393 21.1857 27.3267 21.2625 27.7178 21.2621H30.6943V15.3079H27.7178C27.3268 15.3077 26.9395 15.3846 26.5781 15.5341C26.2167 15.6837 25.8884 15.903 25.6119 16.1795C25.3353 16.456 25.116 16.7842 24.9664 17.1455C24.8168 17.5068 24.7399 17.894 24.7401 18.285Z" fill="#1E1E1E"/>
<path d="M55.885 5.23133C55.8856 5.86304 55.7615 6.48865 55.52 7.07237C55.2784 7.6561 54.9241 8.18648 54.4773 8.63316C54.0306 9.07984 53.5001 9.43407 52.9162 9.67556C52.3324 9.91705 51.7066 10.0411 51.0748 10.0405H46.2666V0.42212H51.0748C51.7065 0.421849 52.3322 0.546059 52.9159 0.787648C53.4996 1.02924 54.03 1.38347 54.4767 1.8301C54.9235 2.27673 55.2778 2.807 55.5194 3.3906C55.7611 3.97421 55.8853 4.5997 55.885 5.23133Z" fill="#E26843"/>
<path d="M52.2209 5.23226C52.2212 5.62331 52.1444 6.0106 51.9949 6.37195C51.8453 6.7333 51.626 7.06163 51.3494 7.33815C51.0729 7.61467 50.7445 7.83395 50.383 7.98345C50.0216 8.13294 49.6342 8.20972 49.2431 8.20938H46.2666V2.25513H49.2431C49.6342 2.25496 50.0215 2.33185 50.3828 2.48141C50.7442 2.63096 51.0725 2.85025 51.3491 3.12673C51.6256 3.40322 51.8449 3.73148 51.9945 4.09276C52.1441 4.45404 52.221 4.84125 52.2209 5.23226Z" fill="#1E1E1E"/>
<path d="M14.3202 0.19359C14.9669 0.193036 15.6075 0.320041 16.2051 0.567338C16.8027 0.814634 17.3457 1.17737 17.803 1.63478C18.2603 2.0922 18.623 2.63532 18.8702 3.23307C19.1175 3.83082 19.2445 4.47147 19.2439 5.11836L19.2439 10.041L9.39648 10.041L9.39648 5.11836C9.39621 4.47155 9.52337 3.83103 9.77072 3.2334C10.0181 2.63578 10.3807 2.09277 10.838 1.6354C11.2953 1.17804 11.8381 0.815296 12.4356 0.567901C13.0331 0.320507 13.6735 0.193313 14.3202 0.19359Z" fill="#A6CE37"/>
<path d="M14.3197 4.08676C14.6957 4.08642 15.0681 4.16322 15.4155 4.31274C15.763 4.46227 16.0787 4.6816 16.3446 4.95818C16.6104 5.23476 16.8213 5.56315 16.965 5.92459C17.1088 6.28602 17.1826 6.67338 17.1823 7.06452L17.1823 10.041L11.457 10.041L11.457 7.06452C11.4569 6.67343 11.5308 6.28614 11.6746 5.92478C11.8184 5.56343 12.0293 5.2351 12.2951 4.95855C12.561 4.68201 12.8766 4.46267 13.224 4.31309C13.5714 4.1635 13.9437 4.08659 14.3197 4.08676Z" fill="#1E1E1E"/>
<path d="M57.259 22.8663H48.8164C48.5046 22.8663 48.2055 22.7425 47.985 22.522C47.7645 22.3015 47.6406 22.0024 47.6406 21.6906V13.2479C48.9032 13.2458 50.1538 13.493 51.3206 13.9753C52.4874 14.4576 53.5475 15.1657 54.44 16.0587C55.3356 16.9515 56.0458 18.0126 56.5296 19.1809C57.0134 20.3493 57.2613 21.6018 57.259 22.8663Z" fill="#FFD740"/>
<path d="M57.2594 19.8892H51.43C51.2147 19.8892 51.0082 19.8037 50.856 19.6514C50.7037 19.4992 50.6182 19.2927 50.6182 19.0774V13.2479C51.4899 13.2464 52.3534 13.4171 53.1591 13.7502C53.9648 14.0832 54.6967 14.5721 55.313 15.1887C55.9314 15.8051 56.4217 16.5378 56.7558 17.3445C57.0899 18.1512 57.261 19.0161 57.2594 19.8892Z" fill="#1E1E1E"/>
<path d="M0.00683594 9.14376L0.763466 7.44543C1.69903 8.09756 2.80643 8.45108 3.94266 8.46034C5.26508 8.46034 5.80168 8.00624 5.80168 7.41591C5.80168 5.59952 0.188696 6.84602 0.188696 3.22686C0.188696 1.57167 1.51112 0.193481 4.24801 0.193481C5.46042 0.193481 6.69976 0.486375 7.59335 1.05627L6.90632 2.76822C6.09605 2.28402 5.17555 2.0204 4.23454 2.00306C2.91436 2.00306 2.4047 2.50484 2.4047 3.1156C2.40919 4.91156 8.02218 3.67187 8.02218 7.25017C8.02218 8.87811 6.68629 10.2699 3.93368 10.2699C2.40919 10.2699 0.86001 9.81128 0.00683594 9.14376Z" fill="white"/>
<path d="M20.8467 0.422119H23.0889V8.2249H27.946V10.0405H20.8467V0.422119Z" fill="white"/>
<path d="M31.0502 2.23552H27.9463V0.422119H36.4197V2.23552H33.3158V10.0405H31.0502V2.23552Z" fill="white"/>
<path d="M45.1218 8.24856V10.0405H37.5645V0.422119H44.9421V2.21409H39.8098V4.30174H44.3415V6.03324H39.8098V8.25752L45.1218 8.24856Z" fill="white"/>
<path d="M0.00683594 21.9655L0.763466 20.2694C1.69903 20.9215 2.80643 21.275 3.94266 21.2843C5.26508 21.2843 5.80168 20.8302 5.80168 20.2399C5.80168 18.4235 0.188696 19.67 0.188696 16.0508C0.188696 14.3956 1.51112 13.0175 4.24801 13.0175C5.46042 13.0175 6.69976 13.3103 7.59335 13.8802L6.91755 15.5877C6.10728 15.1035 5.18677 14.8398 4.24576 14.8225C2.92559 14.8225 2.41593 15.322 2.41593 15.935C2.40919 17.7355 8.02218 16.4958 8.02218 20.0741C8.02218 21.7021 6.68629 23.0939 3.93368 23.0939C2.40919 23.0939 0.86001 22.6262 0.00683594 21.9655Z" fill="white"/>
<path d="M9.16699 18.0557C9.16699 15.1608 11.443 13.0175 14.5487 13.0175C17.6545 13.0175 19.9305 15.1472 19.9305 18.0557C19.9305 20.9642 17.6384 23.0939 14.5487 23.0939C11.459 23.0939 9.16699 20.9506 9.16699 18.0557ZM17.6247 18.0557C17.6247 16.2052 16.3044 14.9383 14.5487 14.9383C12.793 14.9383 11.4728 16.2052 11.4728 18.0557C11.4728 19.9061 12.793 21.1731 14.5487 21.1731C16.3044 21.1731 17.6224 19.9016 17.6224 18.0557H17.6247Z" fill="white"/>
<path d="M32.0674 13.2479H34.3575V22.8663H32.0674V13.2479Z" fill="white"/>
<path d="M43.247 20.8064H38.6965L37.8284 22.8663H35.5029L39.873 13.2479H42.1117L46.4954 22.8663H44.1151L43.247 20.8064ZM42.532 19.1163L40.9786 15.4334L39.4229 19.1163H42.532Z" fill="white"/>
</svg>
