<svg width="24" height="24" viewBox="0 0 24 24" fill="none" xmlns="http://www.w3.org/2000/svg">
<path d="M23.3052 1.6248V10.9516C17.3558 10.9516 12.5322 6.12799 12.5322 0.178589H21.859C22.6579 0.178589 23.3052 0.825922 23.3052 1.6248Z" fill="#E26843"/>
<path d="M10.8004 0.178589V10.9516H5.41385C2.43698 10.9516 0.0273438 8.54196 0.0273438 5.56509C0.0273438 4.07774 0.629212 2.73112 1.60346 1.7547C2.58204 0.780457 3.9265 0.178589 5.41385 0.178589H10.8004Z" fill="#A6CE37"/>
<path d="M23.3052 18.0692C23.3052 19.5566 22.7034 20.9032 21.7291 21.8796C20.7505 22.8539 19.4061 23.4557 17.9187 23.4557H12.5322V12.6827H17.9187C20.8956 12.6827 23.3052 15.0924 23.3052 18.0692Z" fill="#FFD740"/>
<path d="M10.8004 23.4557H1.34366C0.616222 23.4557 0.0273438 22.8669 0.0273438 22.1394V12.6827C3.00421 12.6827 5.69313 13.8886 7.64596 15.8393C9.59661 17.79 10.8004 20.4789 10.8004 23.4557Z" fill="#3A60FF"/>
</svg>
