<svg width="114" height="32" viewBox="0 0 114 32" fill="none" xmlns="http://www.w3.org/2000/svg">
<path d="M31.2951 1.93837V14.4391C23.3189 14.4391 16.8521 7.97403 16.8521 0H29.3562C30.4272 0 31.2951 0.867625 31.2951 1.93837Z" fill="#E26843"/>
<path d="M14.443 0V14.4391H7.2215C3.23052 14.4391 0 11.2095 0 7.21957C0 5.22606 0.806904 3.42117 2.11304 2.11248C3.42499 0.806688 5.22746 0 7.2215 0H14.443Z" fill="#A6CE37"/>
<path d="M31.2951 24.0658C31.2951 26.0593 30.4881 27.8642 29.182 29.1729C27.8701 30.4786 26.0676 31.2853 24.0736 31.2853H16.8521V16.8462H24.0736C28.0645 16.8462 31.2951 20.0758 31.2951 24.0658Z" fill="#FFD740"/>
<path d="M14.443 31.2853H1.76474C0.789489 31.2853 0 30.4961 0 29.5211V16.8462C3.99098 16.8462 7.59593 18.4625 10.214 21.077C12.8292 23.6914 14.443 27.2954 14.443 31.2853Z" fill="#3A60FF"/>
<path d="M37.4341 12.1787L38.4761 9.86887C39.5936 10.6843 41.2625 11.253 42.8531 11.253C44.673 11.253 45.4102 10.6465 45.4102 9.83115C45.4102 7.35015 37.6982 9.05348 37.6982 4.1292C37.6982 1.87453 39.5181 0 43.2885 0C44.9545 0 46.6612 0.397541 47.8919 1.17521L46.9457 3.50532C45.715 2.806 44.4437 2.46359 43.2711 2.46359C41.4512 2.46359 40.7517 3.1455 40.7517 3.97831C40.7517 6.42159 48.4637 4.73567 48.4637 9.60481C48.4637 11.8218 46.6264 13.7137 42.8357 13.7137C40.7314 13.7137 38.6096 13.0869 37.4341 12.1787Z" fill="white"/>
<path d="M59.7374 10.6434H53.5811L52.4056 13.4842H49.2593L55.1717 0.226074H58.202L64.1319 13.4842H60.91L59.7374 10.6434ZM58.7709 8.31617L56.6665 3.241L54.5622 8.31617H58.7709Z" fill="white"/>
<path d="M65.7305 0.226074H68.7984V10.9858H75.4481V13.4871H65.7305V0.226074Z" fill="white"/>
<path d="M79.6956 2.72739H75.4521V0.226074H87.01V2.72739H82.7665V13.4871H79.6985V2.72739H79.6956Z" fill="white"/>
<path d="M98.8751 11.0235V13.4871H88.606V0.226074H98.6284V2.68967H91.6565V5.56821H97.8128V7.95345H91.6565V11.0206H98.8751V11.0235Z" fill="white"/>
<path d="M100.471 0.226074H106.497C110.836 0.226074 113.811 2.84056 113.811 6.85659C113.811 10.8726 110.836 13.4871 106.497 13.4871H100.471V0.226074ZM106.346 10.9655C108.979 10.9655 110.703 9.39272 110.703 6.85659C110.703 4.32045 108.979 2.7477 106.346 2.7477H103.542V10.9684H106.346V10.9655Z" fill="white"/>
<path d="M37.4341 29.7517L38.4761 27.4419C39.5936 28.2573 41.2625 28.826 42.8531 28.826C44.673 28.826 45.4102 28.2195 45.4102 27.4041C45.4102 24.9231 37.6982 26.6265 37.6982 21.7022C37.6982 19.4475 39.5181 17.573 43.2885 17.573C44.9545 17.573 46.6612 17.9705 47.8919 18.7482L46.9457 21.0783C45.715 20.379 44.4437 20.0366 43.2711 20.0366C41.4512 20.0366 40.7517 20.7185 40.7517 21.5513C40.7517 23.9946 48.4637 22.3087 48.4637 27.1778C48.4637 29.3948 46.6264 31.2867 42.8357 31.2867C40.7314 31.2838 38.6096 30.6599 37.4341 29.7517Z" fill="white"/>
<path d="M50.0488 24.4272C50.0488 20.4866 53.1168 17.5703 57.3052 17.5703C61.4732 17.5703 64.5615 20.4692 64.5615 24.4272C64.5615 28.3852 61.4732 31.284 57.3052 31.284C53.1168 31.284 50.0488 28.3677 50.0488 24.4272ZM61.4529 24.4272C61.4529 21.9084 59.6707 20.1848 57.3052 20.1848C54.9367 20.1848 53.1545 21.9084 53.1545 24.4272C53.1545 26.9459 54.9367 28.6695 57.3052 28.6695C59.6736 28.6724 61.4529 26.9488 61.4529 24.4272Z" fill="white"/>
<path d="M66.1582 24.4272C66.1582 20.4314 69.2262 17.5703 73.3565 17.5703C75.6495 17.5703 77.5623 18.4031 78.8132 19.9178L76.8424 21.7372C75.9513 20.7158 74.8339 20.1848 73.5074 20.1848C71.0258 20.1848 69.2639 21.9288 69.2639 24.4272C69.2639 26.9256 71.0258 28.6695 73.5074 28.6695C74.8339 28.6695 75.9513 28.1385 76.8424 27.0968L78.8132 28.9162C77.5623 30.4512 75.6495 31.284 73.3391 31.284C69.2291 31.284 66.1582 28.4258 66.1582 24.4272Z" fill="white"/>
<path d="M80.4116 17.7976H83.4796V31.0557H80.4116V17.7976Z" fill="white"/>
<path d="M95.5577 28.2149H89.4015L88.2259 31.0557H85.0796L90.992 17.7976H94.0223L99.9522 31.0557H96.7304L95.5577 28.2149ZM94.5912 25.8848L92.4869 20.8096L90.3825 25.8848H94.5912Z" fill="white"/>
<path d="M101.551 17.7976H104.619V28.5573H111.268V31.0586H101.551V17.7976Z" fill="white"/>
</svg>
