<svg width="25" height="24" viewBox="0 0 25 24" fill="none" xmlns="http://www.w3.org/2000/svg">
<path d="M24.2652 1.6248V10.9516C18.3158 10.9516 13.4922 6.12799 13.4922 0.178589H22.819C23.6179 0.178589 24.2652 0.825922 24.2652 1.6248Z" fill="white"/>
<path d="M11.7603 0.178589V10.9516H6.37381C3.39694 10.9516 0.987305 8.54196 0.987305 5.56509C0.987305 4.07774 1.58917 2.73112 2.56342 1.7547C3.542 0.780457 4.88646 0.178589 6.37381 0.178589H11.7603Z" fill="white"/>
<path d="M24.2652 18.0692C24.2652 19.5566 23.6633 20.9032 22.6891 21.8796C21.7105 22.8539 20.366 23.4557 18.8787 23.4557H13.4922V12.6827H18.8787C21.8556 12.6827 24.2652 15.0924 24.2652 18.0692Z" fill="white"/>
<path d="M11.7603 23.4557H2.30362C1.57618 23.4557 0.987305 22.8669 0.987305 22.1394V12.6827C3.96417 12.6827 6.65309 13.8886 8.60592 15.8393C10.5566 17.79 11.7603 20.4789 11.7603 23.4557Z" fill="white"/>
</svg>
