<svg width="111" height="112" viewBox="0 0 111 112" fill="none" xmlns="http://www.w3.org/2000/svg">
<path d="M64.3399 77.9954C77.8663 77.4048 91.3928 76.8142 104.915 76.2238C106.406 76.1587 106.443 76.1571 106.329 74.689C106.248 73.676 106.693 72.3785 105.951 71.7179C105.26 71.1049 104.033 71.5983 103.043 71.6416C94.4853 71.9944 85.9292 72.3763 77.3726 72.7499C77.0289 72.7649 76.6783 72.8134 76.3403 72.7701C75.4767 72.6625 74.9317 72.1552 74.906 71.2808C74.8763 70.4107 75.3669 69.8623 76.231 69.6959C76.5355 69.637 76.8515 69.6522 77.1621 69.6387C84.7537 69.3072 92.3446 68.9634 99.9374 68.6609C100.679 68.6285 100.909 68.4815 100.874 67.6781C100.083 50.2225 99.3286 32.7612 98.5664 15.3044C98.4716 13.1343 97.455 12.2782 95.1025 12.3809C74.6058 13.2758 54.1132 14.1705 33.6165 15.0655C33.2728 15.0805 32.9216 15.1165 32.5838 15.0773C31.7164 14.9783 31.2004 14.4697 31.1252 13.6016C31.0526 12.7956 31.6775 12.0919 32.5622 12.016C33.5915 11.9254 34.6323 11.909 35.6675 11.8596C37.9785 11.7587 40.292 11.6204 42.6014 11.5777C43.4431 11.5617 43.6546 11.2744 43.5702 10.4814C43.4589 9.45302 43.4425 8.41222 43.4264 7.3797C43.3866 5.232 44.808 3.66783 46.9364 3.56661C51.1433 3.36218 55.3553 3.17828 59.5641 3.01527C61.6934 2.93475 63.2455 4.36495 63.397 6.50362C63.4625 7.43439 63.4784 8.36733 63.5273 9.29883C63.605 10.7934 63.4037 10.6487 64.8905 10.5837C74.9672 10.1479 85.0397 9.71231 95.1157 9.25993C96.4948 9.19972 97.8036 9.33345 98.9826 10.1077C100.802 11.3022 101.595 13.0228 101.689 15.1764C102.414 32.1535 103.163 49.1254 103.905 66.1017C103.926 66.5863 104.001 67.0726 103.955 67.5477C103.875 68.3604 104.212 68.4908 104.962 68.4498C107.83 68.2955 109.25 69.6278 109.375 72.5021C109.419 73.5043 109.479 74.5017 109.502 75.5049C109.544 77.416 108.343 78.8875 106.457 79.2354C106.017 79.3169 105.566 79.3366 105.118 79.3561C97.5598 79.6861 90.0066 80.0408 82.4502 80.3209C81.402 80.3584 81.3922 80.7032 81.5982 81.5241C83.5928 89.4788 85.563 97.4427 87.5371 105.402C88.0054 107.291 87.4922 107.985 85.579 108.073C82.8538 108.192 80.1286 108.311 77.4035 108.43C76.016 108.491 75.5395 108.125 75.2115 106.791C74.6208 104.381 74.0013 101.977 73.4518 99.5608C73.3188 98.9856 73.0854 98.8672 72.5472 98.8949C62.5085 99.3456 52.4655 99.7924 42.4249 100.198C41.7125 100.229 41.6751 100.608 41.6003 101.08C41.2136 103.533 40.8393 105.985 40.4483 108.433C40.246 109.691 39.8144 110.071 38.5347 110.127C35.7061 110.255 32.8776 110.382 30.0485 110.498C28.4499 110.567 27.8125 109.844 28.0557 108.286C29.3568 99.9756 30.6455 91.666 31.9718 83.3631C32.0795 82.6944 31.9727 82.529 31.2897 82.5671C28.7731 82.7102 26.2544 82.8077 23.7358 82.9052C23.3258 82.9231 22.8944 82.9254 22.5077 82.8136C21.8016 82.6079 21.421 82.0643 21.4393 81.3415C21.4577 80.6229 21.8282 80.0797 22.5549 79.9028C22.986 79.7968 23.4421 79.7893 23.8894 79.7698C37.3785 79.1809 50.8718 78.5917 64.361 78.0028L64.3399 77.9954ZM70.8627 89.2047C70.2316 86.6305 69.6189 84.1924 69.0431 81.7445C68.9053 81.153 68.6877 80.9218 68.0211 80.9551C60.4681 81.3139 52.9137 81.6396 45.3545 81.953C44.7664 81.9787 44.5284 82.1343 44.4479 82.7603C44.1506 84.9808 43.82 87.1986 43.4057 89.3993C43.2402 90.2655 43.4338 90.423 44.2785 90.382C52.4859 89.9946 60.6992 89.6484 68.9078 89.29L70.8627 89.2047ZM72.0062 80.8018C72.9335 84.554 73.8353 88.1952 74.7329 91.8366C75.7716 96.0486 76.798 100.265 77.8572 104.472C77.9322 104.764 77.8023 105.305 78.4233 105.273C80.3364 105.181 82.2502 105.106 84.2091 105.021C82.9839 100.053 81.7849 95.2093 80.5898 90.3609C79.854 87.3847 79.1389 84.4075 78.3785 81.4365C78.2934 81.1041 78.4134 80.5262 77.7549 80.555C75.8664 80.6374 73.9736 80.7201 72.0023 80.8062L72.0062 80.8018ZM34.4105 107.191C35.1684 107.158 35.9287 107.083 36.6848 107.104C37.3161 107.118 37.5482 106.921 37.6518 106.253C38.8356 98.487 40.0488 90.7285 41.2952 82.9726C41.4192 82.1995 41.1748 82.1148 40.517 82.1601C39.0359 82.2621 37.5534 82.331 36.0689 82.3543C35.4302 82.3614 35.2147 82.5576 35.1109 83.2219C33.923 90.9876 32.6931 98.7428 31.4633 106.502C31.3723 107.079 31.3827 107.41 32.1334 107.307C32.884 107.204 33.6484 107.224 34.4064 107.191L34.4105 107.191ZM42.2273 97.0982L43.4077 97.0467C52.2375 96.6612 61.0633 96.2758 69.8931 95.8903C70.7173 95.8543 71.9145 96.0925 72.2729 95.6536C72.7338 95.0899 71.9843 94.0811 71.8853 93.239C71.8 92.5207 71.4859 92.2647 70.6868 92.3037C61.7219 92.7325 52.755 93.1157 43.7877 93.4906C43.0836 93.5213 42.643 93.5987 42.6232 94.4751C42.6064 95.3265 42.3777 96.1705 42.2315 97.0981L42.2273 97.0982ZM53.555 11.0787C55.5885 10.9899 57.6251 10.8761 59.6602 10.8245C60.2903 10.8095 60.5065 10.6299 60.445 9.98113C60.3476 8.98536 60.3204 7.98237 60.31 6.98281C60.3016 6.31511 60.0298 6.078 59.359 6.11144C55.3592 6.30682 51.3582 6.47736 47.3567 6.63547C46.7355 6.66259 46.493 6.90555 46.5325 7.52625C46.5984 8.56074 46.6602 9.59542 46.6638 10.6285C46.6646 11.2177 46.8631 11.3916 47.4548 11.3533C49.4869 11.2314 51.5213 11.1633 53.559 11.0743L53.555 11.0787Z" fill="#582426"/>
<path d="M38.6644 74.4401C28.4181 74.8875 18.1718 75.3348 7.92966 75.782C6.93291 75.8255 6.45703 76.3622 6.50199 77.3921C6.53219 78.0837 6.60794 78.7734 6.57998 79.4634C6.5506 80.3112 6.93725 80.5184 7.71965 80.4759C10.4435 80.328 13.1694 80.2255 15.8948 80.1107C16.2717 80.0942 16.6608 80.0731 17.0285 80.1318C17.7598 80.2492 18.1955 80.724 18.281 81.4464C18.3688 82.2227 18.0152 82.7734 17.2855 83.0708C17.2203 83.0986 17.1551 83.1263 17.0888 83.1292C13.5091 83.3477 9.92791 83.724 6.3405 83.4823C4.79655 83.3796 3.6341 81.8452 3.51748 80.2196C3.43731 79.0488 3.39856 77.8761 3.35567 76.7037C3.27548 74.3918 4.7055 72.8356 7.0111 72.7058C7.91624 72.6553 8.34953 72.1882 8.31095 71.3047C7.55781 54.0549 6.85455 36.8072 6.0103 19.5615C5.8422 16.0915 8.06423 12.9073 12.1617 12.857C16.6491 12.8022 21.1297 12.4987 25.6151 12.3029C25.9588 12.2878 26.3103 12.26 26.6481 12.2992C27.4325 12.3978 27.8974 12.8754 27.9769 13.6521C28.0565 14.4287 27.7081 15.0041 26.9553 15.2486C26.6035 15.3635 26.2102 15.3848 25.8375 15.4011C21.3193 15.6067 16.8005 15.7957 12.2822 15.9971C9.92152 16.1002 9.05807 17.0424 9.16006 19.3783C9.91772 36.7316 10.6835 54.0803 11.408 71.435C11.4498 72.3917 11.7374 72.5161 12.5988 72.4785C31.4999 71.6283 50.4065 70.807 69.3128 69.9815C70.9736 69.909 71.7532 70.3729 71.7878 71.4503C71.8179 72.5195 71.093 73.0242 69.4115 73.0976C59.1652 73.545 48.919 73.9924 38.6768 74.4396L38.6644 74.4401Z" fill="#582426"/>
<path d="M44.9276 34.0991C45.2426 40.459 40.294 45.9159 33.9219 46.2356C27.5167 46.5567 22.0299 41.5887 21.7127 35.1791C21.3992 28.8524 26.3996 23.3476 32.7391 23.0418C39.1822 22.7314 44.6089 27.6565 44.9274 34.095L44.9276 34.0991ZM41.8111 34.285C41.619 29.6003 37.6716 25.9593 33.0035 26.1507C28.3312 26.3422 24.6852 30.2691 24.827 34.9436C24.9683 39.6056 29.0193 43.3375 33.7157 43.1283C38.3916 42.9242 42.0074 38.9695 41.811 34.2809L41.8111 34.285Z" fill="#582426"/>
<path d="M56.5552 47.7702C54.481 47.8773 52.4125 47.8307 50.3487 47.6055C49.1521 47.4751 48.4688 46.841 48.5446 45.9165C48.6291 44.9045 49.3986 44.3772 50.6613 44.5004C55.3072 44.9408 59.9103 44.6859 64.4158 43.431C69.8232 41.9252 74.2312 39.102 76.6291 33.7689C77.4839 31.8685 77.9692 29.868 78.1816 27.7964C78.2219 27.388 78.2443 26.9513 78.4108 26.5831C78.7472 25.8298 79.3769 25.5201 80.1948 25.7209C81.0171 25.9257 81.4167 26.5265 81.3522 27.3302C80.8188 34.0258 78.1429 39.5494 72.3768 43.2951C67.5751 46.4135 62.1744 47.5041 56.5511 47.7704L56.5552 47.7702Z" fill="#582426"/>
<path d="M52.4474 57.4146C52.2884 53.7741 55.0881 50.7058 58.7075 50.5394C62.3766 50.371 65.4551 53.2117 65.5912 56.8988C65.7247 60.5279 62.8838 63.6023 59.2797 63.7389C55.659 63.8762 52.6018 61.047 52.4475 57.4187L52.4474 57.4146ZM62.4738 56.9685C62.385 55.0305 60.7816 53.5652 58.8518 53.6536C56.9261 53.7418 55.4736 55.353 55.5582 57.2912C55.6421 59.2129 57.2764 60.7184 59.1768 60.623C61.0816 60.5315 62.5575 58.8861 62.4695 56.9646L62.4738 56.9685Z" fill="#582426"/>
<path d="M81.7498 54.0481C82.4604 53.2163 83.0905 52.4419 83.7637 51.7029C84.5675 50.8213 85.4965 50.7144 86.2016 51.3724C86.9157 52.0466 86.8656 52.8953 86.0389 53.8235C85.5366 54.389 85.0435 54.9749 84.4935 55.4927C84.043 55.9149 84.1209 56.177 84.5599 56.5396C85.1969 57.0637 85.8028 57.6348 86.3925 58.2148C87.1512 58.9618 87.2094 59.8182 86.5794 60.5013C85.9695 61.167 85.0895 61.1598 84.2805 60.498C83.4628 59.8283 82.7574 58.498 81.8812 58.5778C81.1125 58.6487 80.4639 59.9509 79.7409 60.6879C79.006 61.4378 78.1129 61.51 77.4478 60.9125C76.731 60.2716 76.7344 59.4 77.4851 58.5374C78.0501 57.8861 78.6321 57.2466 79.2318 56.6312C79.5496 56.3061 79.5242 56.1039 79.1795 55.8119C78.4944 55.2318 77.8331 54.6258 77.1955 53.9939C76.4454 53.2548 76.4155 52.3806 77.0708 51.7088C77.6667 51.1019 78.566 51.075 79.2996 51.7194C80.1021 52.423 80.8533 53.1869 81.745 54.0318L81.7498 54.0481Z" fill="#582426"/>
<path d="M39.5645 61.45C39.5206 62.0619 39.3153 62.5854 38.7269 62.8891C38.11 63.2065 37.5184 63.1535 36.9971 62.7115C36.3161 62.1312 35.6388 61.5384 35.0093 60.902C34.61 60.5003 34.3462 60.4454 33.9647 60.9268C33.4493 61.5717 32.8696 62.1697 32.2938 62.7633C31.5593 63.5215 30.6829 63.5971 30.0052 62.996C29.284 62.3511 29.2877 61.4837 30.0346 60.6295C30.5564 60.0341 31.0689 59.4184 31.6472 58.8827C32.1457 58.4211 32.0506 58.1431 31.5732 57.7573C30.9322 57.2376 30.3263 56.6665 29.7406 56.0821C28.9988 55.3427 28.9767 54.4556 29.6282 53.7923C30.2241 53.1854 31.1076 53.1759 31.8573 53.8112C32.5123 54.3677 33.156 54.9495 33.7635 55.5579C34.128 55.9237 34.3625 55.9716 34.7126 55.533C35.2281 54.8881 35.808 54.2943 36.3794 53.6967C37.1374 52.9043 38.0755 52.8177 38.7507 53.4563C39.4259 54.0949 39.4248 54.9248 38.714 55.7525C38.1966 56.3519 37.6841 56.9677 37.1016 57.5035C36.579 57.9827 36.6707 58.2775 37.1784 58.691C37.8712 59.2583 38.5048 59.8946 39.1503 60.5178C39.4059 60.7639 39.4996 61.1043 39.5646 61.4541L39.5645 61.45Z" fill="#582426"/>
<path d="M62.8967 30.1027C62.8865 30.6302 62.6849 31.0498 62.3399 31.4175C61.8205 31.9713 61.3445 32.5689 60.7945 33.0867C60.2922 33.5568 60.2024 33.8761 60.8203 34.3429C61.4809 34.8369 62.0711 35.4294 62.6527 36.0139C63.3515 36.7179 63.3763 37.5716 62.766 38.229C62.1677 38.8775 61.3021 38.9153 60.5443 38.2845C59.7045 37.5825 58.8965 36.8502 58.0726 36.1309C57.3431 36.9097 56.6267 37.7045 55.8754 38.4593C55.1402 39.2009 54.2411 39.2319 53.5821 38.5843C52.949 37.9605 52.9381 37.1394 53.5973 36.3678C54.1342 35.7385 54.6838 35.117 55.2769 34.5392C55.7068 34.1221 55.7901 33.8446 55.2616 33.4279C54.6129 32.9209 54.0187 32.3327 53.4251 31.757C52.658 31.0103 52.5957 30.1541 53.2215 29.4712C53.8394 28.7969 54.7025 28.7965 55.5201 29.4663C56.338 30.1401 57.0778 31.4979 57.9075 31.3994C58.7207 31.3017 59.3898 29.9944 60.1279 29.2236C60.6241 28.7081 61.1915 28.4925 61.901 28.7769C62.5134 29.024 62.7835 29.506 62.8965 30.0986L62.8967 30.1027Z" fill="#582426"/>
<path d="M72.0075 80.7977C73.9789 80.7116 75.8716 80.629 77.7602 80.5466C78.4187 80.5178 78.2989 81.0998 78.3837 81.4281C79.14 84.3993 79.8592 87.3762 80.595 90.3525C81.7901 95.2009 82.9892 100.045 84.2144 105.012C82.2554 105.098 80.3418 105.177 78.4286 105.265C77.8074 105.292 77.9375 104.755 77.8625 104.464C76.8033 100.257 75.7768 96.0402 74.7381 91.8282C73.8405 88.1868 72.9388 84.5455 72.0115 80.7934L72.0075 80.7977Z" fill="#FEC4C5"/>
<path d="M34.4098 107.187C33.6519 107.22 32.8833 107.199 32.1368 107.303C31.3861 107.406 31.3758 107.074 31.4668 106.498C32.6965 98.7385 33.9264 90.9834 35.1144 83.2176C35.2181 82.5533 35.4338 82.3613 36.0724 82.3501C37.557 82.3309 39.0394 82.2579 40.5204 82.1559C41.1782 82.1105 41.4226 82.1953 41.2987 82.9684C40.0563 90.7241 38.839 98.4828 37.6552 106.248C37.5516 106.917 37.3195 107.114 36.6882 107.1C35.9323 107.083 35.1718 107.153 34.4139 107.187L34.4098 107.187Z" fill="#FEC4C5"/>
<path d="M42.2248 97.0984C42.3752 96.1706 42.5996 95.3226 42.6166 94.4754C42.6364 93.599 43.0768 93.5175 43.7811 93.4909C52.7483 93.116 61.7152 92.7328 70.6802 92.304C71.4795 92.2691 71.7932 92.5168 71.8787 93.2393C71.9777 94.0814 72.7272 95.0902 72.2663 95.6539C71.9118 96.0885 70.7107 95.8547 69.8865 95.8906C61.0566 96.2762 52.2309 96.6615 43.4011 97.047L42.2207 97.0985L42.2248 97.0984Z" fill="#FEC4C5"/>
<path d="M53.5563 11.0787C51.5228 11.1674 49.4842 11.2357 47.4521 11.3576C46.8602 11.3918 46.662 11.222 46.6611 10.6328C46.6575 9.59973 46.5997 8.56074 46.5298 7.53057C46.4905 6.91401 46.7328 6.66691 47.354 6.63979C51.3555 6.48168 55.3563 6.307 59.3564 6.11576C60.0273 6.08646 60.2989 6.31942 60.3073 6.98712C60.3177 7.98669 60.3491 8.9895 60.4423 9.98545C60.5039 10.6342 60.2916 10.8095 59.6576 10.8289C57.6224 10.8804 55.59 10.994 53.5523 11.083L53.5563 11.0787Z" fill="#FEC4C5"/>
<path d="M41.8098 34.2849C42.0021 38.9737 38.3861 42.9243 33.7146 43.1324C29.018 43.3374 24.9672 39.6096 24.8259 34.9476C24.6838 30.2691 28.3301 26.3463 33.0024 26.1547C37.6746 25.9632 41.6179 29.6044 41.81 34.2891L41.8098 34.2849ZM32.0657 39.6773C32.6342 39.6774 33.0269 39.3573 33.3789 38.9602C35.2143 36.9007 37.0625 34.8491 38.8893 32.7817C39.6248 31.9487 39.6088 31.0116 38.9017 30.4035C38.2117 29.807 37.2918 29.9302 36.5434 30.7513C35.589 31.7971 34.6561 32.8586 33.7104 33.9124C33.1368 34.5557 32.6149 35.6242 31.9593 35.7192C31.2047 35.8268 30.6284 34.6984 29.9206 34.1691C29.8949 34.1495 29.8688 34.1216 29.843 34.102C28.987 33.4091 28.0582 33.4247 27.4629 34.1395C26.8715 34.85 26.9616 35.6801 27.7699 36.4208C28.7859 37.3557 29.8296 38.2604 30.8612 39.1739C31.2064 39.4783 31.5815 39.7067 32.0657 39.6773Z" fill="#FEC4C5"/>
<path d="M62.4727 56.9686C62.5607 58.8901 61.0848 60.5355 59.18 60.6269C57.2794 60.7182 55.6495 59.2167 55.5614 57.2952C55.4766 55.3528 56.9293 53.7458 58.855 53.6575C60.7848 53.5691 62.3841 55.0346 62.477 56.9725L62.4727 56.9686Z" fill="#FEC4C5"/>
<path d="M32.0664 39.6775C31.5822 39.7069 31.2071 39.4785 30.8618 39.174C29.83 38.2564 28.7864 37.3517 27.7706 36.4209C26.9665 35.6801 26.8721 34.8502 27.4635 34.1397C28.0587 33.4207 28.9836 33.4094 29.8437 34.1022C29.8696 34.1259 29.8956 34.1497 29.9213 34.1693C30.6249 34.6988 31.2053 35.827 31.96 35.7193C32.6156 35.6243 33.1333 34.5561 33.711 33.9126C34.6567 32.8588 35.5897 31.7973 36.544 30.7514C37.2924 29.9304 38.2124 29.8072 38.9024 30.4037C39.6096 31.0159 39.6255 31.9489 38.89 32.7819C37.0632 34.8492 35.215 36.9009 33.3795 38.9604C33.0234 39.3577 32.6349 39.6775 32.0664 39.6775Z" fill="#582426"/>
</svg>
