<svg width="147" height="132" viewBox="0 0 147 132" fill="none" xmlns="http://www.w3.org/2000/svg">
<path d="M2.26409 9.05636C2.26409 5.3051 5.3051 2.26409 9.05636 2.26409L127.544 2.26409C131.295 2.26409 134.336 5.3051 134.336 9.05636V83.7714H2.26409L2.26409 9.05636Z" stroke="#693B3C" stroke-width="4.52818"/>
<path d="M91.4142 122.145C90.6006 122.145 89.7806 122.087 88.9736 122.158C88.1015 122.235 87.8737 121.908 87.8932 121.074C87.9453 118.728 87.8607 116.376 87.9323 114.03C87.9583 113.075 87.7501 112.767 86.7022 112.774C73.3669 112.812 60.0315 112.806 46.6962 112.774C45.6809 112.774 45.4011 113.056 45.4336 114.037C45.5052 116.383 45.4206 118.735 45.4727 121.081C45.4922 121.92 45.2253 122.202 44.3663 122.164C43.1232 122.1 41.8736 122.106 40.6305 122.164C37.8646 122.292 35.6257 124.542 35.476 127.208C35.4044 128.542 35.8665 129.689 36.5954 130.785C36.4588 130.862 36.3221 130.913 36.1919 130.952V131.317H97.0243V130.977C96.9332 130.945 96.8485 130.888 96.7704 130.798C96.8616 130.625 96.9462 130.452 97.0243 130.279C99.1329 125.709 96.7314 122.151 91.4142 122.145ZM142.081 118.927C146.435 117.382 146.415 117.318 146.409 112.767C146.409 109.697 146.122 109.274 143.246 108.159C141.25 107.386 140.679 106.04 141.534 104.121C142.764 101.371 142.673 100.91 140.519 98.7945C137.245 95.5768 137.219 95.5256 132.735 97.5638C131.505 98.1215 131.095 97.9869 130.626 96.7178C128.921 92.1541 129.448 92.0131 124.157 92.0836C121.319 92.122 121.066 92.2759 120.018 94.9231C119.608 95.9614 119.413 97.5061 118.645 97.8715C117.753 98.3009 116.542 97.1857 115.469 96.7562C113.034 95.7691 112.468 95.8268 110.718 97.5574C106.956 101.269 106.871 100.615 109.182 105.544C109.722 106.691 109.481 107.024 108.368 107.428C103.526 109.191 103.48 108.569 103.552 114.376C103.578 116.658 104.047 117.338 106.246 118.184C107.353 118.607 108.993 118.773 109.409 119.555C109.911 120.51 108.687 121.741 108.231 122.856C107.346 125.023 107.385 125.548 108.98 127.106C112.781 130.823 112.117 131.118 117.538 128.747C117.909 128.586 118.417 127.946 118.775 128.503C119.107 129.029 119.465 129.65 119.491 130.279H119.536V131.317H130.86C130.62 131.298 130.431 131.182 130.457 130.714C130.548 129.08 131.297 128.561 132.774 129.202C133.269 129.413 133.763 129.625 134.258 129.843C136.978 131.016 137.434 130.932 139.529 128.875C142.862 125.606 142.946 125.561 140.922 121.382C140.167 119.812 140.655 119.434 142.081 118.927ZM125.094 121.927C120.382 121.94 116.503 118.107 116.555 113.498C116.614 108.96 120.512 105.185 125.114 105.217C129.741 105.243 133.529 109.018 133.522 113.601C133.522 118.222 129.787 121.908 125.094 121.927Z" fill="#EBC9C9"/>
<path d="M117.726 90.5943C117.598 90.9083 117.559 90.998 117.527 91.0877C116.813 92.952 115.783 93.8553 113.66 92.7854C112.772 92.337 111.601 92.6701 110.713 93.1827C108.075 94.6946 105.9 96.7256 104.536 99.4676C103.79 100.967 103.829 102.581 104.568 104.106C104.935 104.868 104.974 105.278 104.028 105.605C102.612 106.099 101.532 107.092 100.997 108.501C100.689 109.321 100.18 109.443 99.4082 109.43C96.944 109.392 94.4797 109.417 92.0154 109.417C64.207 109.417 36.3985 109.417 8.59656 109.417C4.20847 109.417 1.3517 107.482 0.302933 103.792C0.142079 103.235 0.0520009 102.639 0.0455667 102.062C0.0198301 98.5963 0.0455668 95.1239 0.000527665 91.6579C-0.0123406 90.8378 0.206421 90.4598 1.0686 90.5879C1.3324 90.6264 1.60263 90.5879 1.87287 90.5879C39.9116 90.5879 77.9503 90.5879 115.995 90.5879H117.733L117.726 90.5943ZM66.8385 96.4757C64.5673 96.4757 62.7786 98.2568 62.7657 100.538C62.7528 102.831 64.4901 104.625 66.7678 104.683C69.0969 104.734 70.9435 102.889 70.9242 100.531C70.9049 98.2503 69.1162 96.4757 66.845 96.4821L66.8385 96.4757Z" fill="#EBC9C9"/>
<path d="M19.5998 38.4895C15.9158 33.598 15.6198 27.1397 18.7874 22.1093C21.9236 17.1186 27.7046 14.7918 33.2212 16.3056C38.6056 17.7796 42.636 22.929 42.9949 28.8782C43.1902 32.1173 42.3148 35.0654 40.6019 37.7558C40.2177 38.3639 39.947 38.6812 39.3802 37.888C34.6886 31.2711 24.8078 31.1191 19.921 38.245C19.8643 38.3309 19.7509 38.3706 19.5935 38.4829L19.5998 38.4895ZM34.613 26.644C34.613 23.5768 32.3333 21.2037 29.4302 21.2302C26.5963 21.2566 24.3733 23.5967 24.3292 26.5845C24.2851 29.6186 26.5711 32.071 29.4553 32.0842C32.3522 32.104 34.6193 29.7111 34.613 26.644Z" fill="#693B3C"/>
</svg>
