<svg width="67" height="67" viewBox="0 0 67 67" fill="none" xmlns="http://www.w3.org/2000/svg">
<path d="M33.4182 0C15.1946 0 0.418213 15.0002 0.418213 33.5C0.418213 51.9998 15.1946 67 33.4182 67C51.6419 67 66.4182 51.9998 66.4182 33.5C66.4182 15.0002 51.6419 0 33.4182 0ZM49.2774 25.2521C49.2995 25.6036 49.2995 25.97 49.2995 26.3289C49.2995 37.3061 41.0642 49.9509 26.0153 49.9509C21.3747 49.9509 17.0729 48.5825 13.4488 46.227C14.1117 46.3018 14.7452 46.3317 15.4229 46.3317C19.2533 46.3317 22.7742 45.0156 25.5807 42.7873C21.9861 42.7125 18.966 40.3196 17.9347 37.0295C19.1943 37.2164 20.3287 37.2164 21.6251 36.8799C19.7742 36.4982 18.1106 35.4777 16.9169 33.9919C15.7231 32.5061 15.0729 30.6466 15.0767 28.7292V28.6246C16.1595 29.2452 17.4338 29.6266 18.7671 29.6789C17.6463 28.9206 16.7271 27.8933 16.0911 26.6881C15.455 25.4828 15.1218 24.1368 15.1209 22.7695C15.1209 21.2217 15.5187 19.8084 16.2332 18.582C18.2876 21.1494 20.8512 23.2492 23.7574 24.7449C26.6635 26.2406 29.8472 27.0988 33.1015 27.2636C31.945 21.618 36.0995 17.0491 41.0937 17.0491C43.4508 17.0491 45.5722 18.0511 47.0675 19.6663C48.9164 19.3148 50.6843 18.6119 52.2606 17.6698C51.6492 19.5915 50.3675 21.2142 48.666 22.2386C50.316 22.0592 51.9071 21.5955 53.3803 20.945C52.268 22.605 50.8758 24.0781 49.2774 25.2521Z" fill="white"/>
</svg>
