<svg width="151" height="151" viewBox="0 0 151 151" fill="none" xmlns="http://www.w3.org/2000/svg">
<path d="M93.6951 140.558C81.7355 140.558 69.77 140.558 57.8104 140.558C55.7324 140.558 55.7445 140.558 55.7263 142.567C55.7203 143.475 55.7808 144.401 55.5991 145.278C54.6903 149.677 49.9101 151.595 46.0327 149.084C42.1007 146.543 38.2111 143.923 34.3337 141.291C33.5461 140.752 32.7645 140.522 31.8133 140.534C28.3297 140.577 24.846 140.552 21.3684 140.552C13.8074 140.552 9.41499 136.528 8.50015 129.001C6.85223 115.405 5.10738 101.82 3.40494 88.2237C2.29017 79.3288 1.14511 70.4399 0.084866 61.539C-0.739093 54.6288 4.53788 48.6626 11.5173 48.6142C20.1507 48.5597 28.778 48.5718 37.4114 48.6263C38.5625 48.6323 38.817 48.3419 38.7988 47.2224C38.7322 43.7552 38.7867 43.7552 35.2667 43.7552C30.9288 43.7552 26.5848 43.7673 22.2469 43.7552C17.6243 43.7431 14.5526 40.6935 14.5466 36.0947C14.5344 26.6673 14.5344 17.24 14.5466 7.81257C14.5526 3.29251 17.6243 0.206524 22.1379 0.200473C34.8547 0.188371 47.5776 0.188371 60.2944 0.200473C64.7172 0.200473 67.807 3.29856 67.8373 7.70971C67.8615 11.189 67.91 14.6683 67.807 18.1415C67.7707 19.3941 68.2008 19.5756 69.3156 19.5756C79.609 19.5333 89.9085 19.5151 100.202 19.5938C101.62 19.6059 101.807 19.1642 101.789 17.9237C101.759 15.4126 101.504 12.8712 101.941 10.3782C102.904 4.92022 106.872 0.902383 112.355 0.333594C116.56 -0.102075 120.855 -0.120228 125.054 0.333594C131.312 1.0113 135.644 6.14856 135.662 12.4658C135.693 24.011 135.699 35.5501 135.638 47.0954C135.632 48.3963 135.996 48.6263 137.213 48.6142C143.751 48.5536 148.131 51.5307 149.755 56.9161C150.445 59.2215 150.148 61.5087 149.864 63.802C147.786 80.3393 145.695 96.8766 143.611 113.414C142.902 119.059 142.242 124.711 141.479 130.35C140.649 136.468 135.947 140.516 129.731 140.528C117.717 140.546 105.709 140.528 93.6951 140.528V140.558ZM118.729 101.887C112.283 101.869 105.83 101.844 99.384 101.826C99.3719 100.616 99.4264 99.3998 99.3234 98.2017C99.2386 97.1852 99.6021 96.9613 100.571 96.9734C104.443 97.0278 108.314 96.9976 112.331 96.9976C112.065 96.4106 111.871 95.9629 111.653 95.5211C108.593 89.4097 105.539 83.2922 102.45 77.1928C101.959 76.2186 101.747 75.2565 101.753 74.1734C101.783 67.6686 101.753 61.1699 101.789 54.6651C101.795 53.703 101.577 53.4186 100.565 53.4186C70.9393 53.4489 41.3131 53.4368 11.6869 53.4489C7.48838 53.4489 4.447 56.8011 4.91351 60.9702C5.48907 66.1256 6.21003 71.2629 6.85223 76.4062C8.11241 86.4508 9.3544 96.4953 10.6146 106.534C11.5839 114.279 12.5109 122.03 13.5651 129.763C14.08 133.533 16.7337 135.687 20.5505 135.699C24.64 135.712 28.7296 135.754 32.813 135.675C34.1459 135.651 35.2122 136.014 36.2966 136.752C40.2892 139.481 44.3302 142.132 48.3531 144.812C48.9044 145.175 49.4194 145.575 50.1464 145.175C50.8431 144.794 50.8916 144.183 50.8916 143.499C50.8795 141.381 50.9583 139.263 50.8613 137.152C50.8068 135.984 51.1218 135.669 52.3214 135.675C63.978 135.724 75.6407 135.706 87.2973 135.706C101.432 135.706 115.56 135.712 129.695 135.706C133.506 135.706 136.123 133.527 136.674 129.757C137.329 125.274 137.837 120.772 138.407 116.276C139.582 106.933 140.752 97.5906 141.921 88.2479C143.06 79.1533 144.235 70.0648 145.32 60.9641C145.744 57.388 143.496 54.3626 140.031 53.6001C139.401 53.461 138.728 53.4549 138.08 53.4489C135.687 53.4247 135.687 53.4368 135.687 55.7482C135.687 62.0473 135.681 68.3524 135.699 74.6514C135.699 75.4259 135.541 76.1097 135.19 76.8116C131.682 83.7762 128.186 90.7409 124.733 97.7297C123.485 100.259 121.558 101.693 118.729 101.887V101.887ZM41.1677 5.05334C35.0122 5.05334 28.8628 5.05334 22.7074 5.05334C20.1325 5.05334 19.3873 5.7976 19.3873 8.37531C19.3873 17.4396 19.3873 26.51 19.3873 35.5743C19.3873 38.1702 20.1265 38.9266 22.6771 38.9266C35.0304 38.9266 47.3898 38.9266 59.7431 38.9266C62.215 38.9266 62.9905 38.1521 62.9905 35.6833C62.9905 26.5645 62.9905 17.4517 62.9905 8.33295C62.9905 5.79155 62.2271 5.05939 59.622 5.05334C53.4665 5.05334 47.3171 5.05334 41.1616 5.05334H41.1677ZM72.6902 48.6081C81.9718 48.6081 91.2535 48.596 100.529 48.6323C101.486 48.6323 101.789 48.4266 101.783 47.41C101.735 40.1065 101.747 32.803 101.777 25.4995C101.777 24.6826 101.614 24.3922 100.723 24.3922C90.1327 24.4224 79.5363 24.4285 68.946 24.3922C67.9524 24.3922 67.807 24.7129 67.8191 25.5903C67.8676 29.118 67.8494 32.6396 67.8373 36.1673C67.8131 40.6753 64.7414 43.7552 60.2399 43.7734C55.8535 43.7915 51.4611 43.7734 47.0748 43.7734C43.5911 43.7734 43.6517 43.7734 43.579 47.2708C43.5548 48.4508 43.9122 48.6444 45.0027 48.6384C54.2299 48.596 63.4631 48.6142 72.6902 48.6142V48.6081ZM118.693 24.4103C122.376 24.4103 126.06 24.3861 129.743 24.4285C130.555 24.4345 130.87 24.2772 130.858 23.3756C130.804 19.6966 130.864 16.0177 130.828 12.3387C130.779 8.21193 127.653 5.1078 123.521 5.05939C120.34 5.02308 117.166 5.02913 113.985 5.05939C109.762 5.10174 106.654 8.20588 106.618 12.4355C106.588 16.0116 106.666 19.5938 106.582 23.1699C106.557 24.3075 106.963 24.4466 107.951 24.4345C111.531 24.374 115.118 24.4103 118.699 24.4103H118.693ZM106.606 55.8692C106.606 61.1094 106.63 66.3495 106.582 71.5896C106.569 72.5759 106.824 72.8543 107.817 72.8301C110.289 72.7575 112.761 72.7696 115.233 72.8301C116.093 72.8482 116.312 72.5941 116.312 71.7469C116.281 61.1638 116.281 50.5807 116.312 39.9976C116.312 39.1444 116.087 38.8963 115.233 38.9145C112.761 38.9689 110.289 38.9871 107.817 38.9145C106.818 38.8842 106.575 39.1747 106.582 40.1549C106.63 45.395 106.606 50.6352 106.606 55.8753V55.8692ZM130.834 56.0024C130.834 50.7138 130.804 45.4192 130.858 40.1307C130.87 39.1202 130.573 38.8782 129.604 38.9084C127.132 38.975 124.66 38.9689 122.188 38.9084C121.304 38.8842 121.122 39.1747 121.122 40.0036C121.146 50.5868 121.152 61.1699 121.122 71.753C121.122 72.6243 121.376 72.8422 122.219 72.824C124.69 72.7696 127.162 72.7514 129.634 72.8301C130.658 72.8664 130.864 72.5336 130.852 71.5775C130.804 66.3858 130.828 61.1941 130.828 56.0084L130.834 56.0024ZM129.246 77.7495H108.169C111.15 83.7157 114.07 89.5428 116.978 95.382C117.366 96.1625 117.735 96.9794 118.796 96.9371C119.759 96.9008 120.104 96.1262 120.468 95.3941C123.133 90.0511 125.799 84.7081 128.465 79.3651C128.725 78.8387 128.98 78.3122 129.246 77.7555V77.7495ZM118.693 34.0858C121.619 34.0858 124.545 34.0858 127.471 34.0858C130.84 34.0858 130.785 34.0858 130.87 30.7941C130.9 29.59 130.67 29.1966 129.356 29.2148C122.952 29.2935 116.542 29.2511 110.132 29.2511C106.575 29.2511 106.63 29.2511 106.582 32.8454C106.563 33.9769 106.957 34.1282 107.951 34.11C111.531 34.0495 115.112 34.0858 118.699 34.0858H118.693Z" fill="white"/>
<path d="M118.73 101.887C118.73 103.466 118.73 105.045 118.73 106.631C112.277 106.649 105.831 106.673 99.3789 106.691C99.3789 105.069 99.3789 103.448 99.3789 101.826C105.825 101.844 112.278 101.869 118.724 101.887H118.73Z" fill="#00ADE8"/>
<path d="M48.4634 120.717C48.4634 123.743 48.4392 126.762 48.4816 129.788C48.4937 130.599 48.3362 130.913 47.4335 130.901C43.447 130.847 39.4605 130.847 35.474 130.901C34.547 130.913 34.3289 130.581 34.1472 129.739C32.8022 123.501 31.3178 117.287 30.0395 111.03C29.7123 109.414 29.1004 108.936 27.5131 109.069C24.9988 109.275 22.6117 108.694 20.4367 107.351C16.6804 105.021 14.6387 101.627 14.5781 97.2337C14.5236 93.2099 14.1298 89.1497 14.7962 85.1621C15.7656 79.3532 20.6851 75.3293 26.5922 75.2204C31.7359 75.1296 36.8856 75.4806 42.0172 74.9239C51.4079 73.9073 59.8292 70.4885 67.3236 64.7462C67.7901 64.3892 68.0082 63.9595 68.19 63.4029C69.3229 59.9175 72.7096 57.7997 76.163 58.3443C79.7618 58.9191 82.3427 61.8962 82.3669 65.6175C82.4033 70.1013 82.3972 74.585 82.3548 79.0748C82.3487 79.9401 82.5426 80.3516 83.4514 80.636C88.6678 82.2576 92.0545 86.8261 92.0606 92.1267C92.0727 97.4395 88.6981 102.056 83.5241 103.672C82.579 103.968 82.3366 104.368 82.3487 105.33C82.4093 109.662 82.3851 113.995 82.373 118.333C82.3609 122.327 79.9375 125.328 76.2296 125.97C72.6975 126.581 69.438 124.481 68.1415 120.693C67.9598 120.167 67.6508 119.846 67.2509 119.538C61.9194 115.435 56.0063 112.531 49.4994 110.794C48.4937 110.522 48.4392 110.83 48.4453 111.653C48.4816 114.679 48.4574 117.698 48.4574 120.724L48.4634 120.717ZM67.7356 113.832V70.4946C59.1143 76.249 49.7842 79.3774 39.6059 79.922C38.6426 79.9764 38.7759 80.521 38.7759 81.1201C38.7759 88.478 38.8001 95.836 38.7516 103.194C38.7516 104.12 39 104.38 39.9028 104.422C43.3319 104.586 46.7186 105.1 50.0508 105.929C56.3516 107.502 62.1921 110.116 67.7356 113.825V113.832ZM72.6915 92.157C72.6915 100.665 72.6915 109.178 72.6915 117.686C72.6915 118.14 72.643 118.6 72.7218 119.041C72.9459 120.342 73.7335 121.105 75.0664 121.183C76.3205 121.256 77.3565 120.3 77.514 118.993C77.5625 118.594 77.5383 118.188 77.5383 117.783C77.5383 100.713 77.5383 83.6373 77.5383 66.5675C77.5383 66.1137 77.5867 65.6478 77.5019 65.2121C77.2414 63.9232 76.4296 63.1427 75.0906 63.1548C73.7578 63.1729 72.9641 63.9595 72.7278 65.2605C72.6491 65.7022 72.6975 66.1621 72.6975 66.6159C72.6975 75.1236 72.6975 83.6372 72.6975 92.1449L72.6915 92.157ZM20.0308 84.9079C21.812 84.9079 23.5569 84.9079 25.3078 84.9079C29.2882 84.9079 29.264 84.9079 29.1065 88.8532C29.0762 89.5914 28.8702 89.785 28.1613 89.7669C26.4952 89.7185 24.8352 89.7487 23.1691 89.7487C19.1887 89.7487 19.2129 89.7487 19.3704 93.6939C19.4007 94.4321 19.6128 94.6197 20.3156 94.6016C22.0301 94.5532 23.7447 94.5895 25.4592 94.5895C29.1852 94.5895 29.1489 94.5895 29.1065 98.3834C29.0944 99.2548 28.846 99.4665 28.0038 99.4484C25.3562 99.4 22.7026 99.4302 20.0066 99.4302C20.8669 102.196 23.3448 104.132 26.2226 104.241C28.4885 104.325 30.7604 104.235 33.0324 104.289C33.7897 104.307 33.9412 104.041 33.9412 103.345C33.9169 95.8904 33.9169 88.4357 33.9412 80.9809C33.9412 80.2427 33.7231 80.049 33.0082 80.0672C30.7907 80.1095 28.5673 80.0369 26.3498 80.1035C23.4054 80.1882 20.7942 82.185 20.0308 84.92V84.9079ZM34.547 109.172C35.5043 113.493 36.4191 117.759 37.4066 122C37.7217 123.338 37.4854 125.225 38.5578 125.867C39.5998 126.49 41.2962 125.994 42.7018 126.054C43.4167 126.085 43.6409 125.879 43.6348 125.141C43.6045 120.264 43.6106 115.387 43.6287 110.516C43.6287 109.935 43.5379 109.572 42.8654 109.499C40.1209 109.221 37.3824 108.96 34.547 109.172V109.172ZM82.4517 98.7586C85.1538 98.0325 87.135 95.3156 87.2319 92.3385C87.3288 89.3675 85.0872 86.0879 82.4517 85.5614V98.7646V98.7586Z" fill="white"/>
<path d="M109.039 130.834C107.416 130.834 105.792 130.834 104.168 130.834C104.144 129.297 104.72 127.234 103.944 126.357C103.06 125.352 100.951 126.127 99.376 126.048C99.376 124.426 99.376 122.805 99.376 121.183C110.657 121.183 121.932 121.183 133.213 121.183C133.213 122.805 133.213 124.426 133.213 126.048C131.674 126.072 129.608 125.497 128.73 126.272C127.724 127.155 128.499 129.261 128.421 130.834C126.797 130.834 125.173 130.834 123.549 130.834C123.549 129.636 123.495 128.432 123.586 127.24C123.665 126.242 123.307 126.006 122.344 126.012C118.715 126.018 118.715 125.982 118.721 129.636C118.721 130.036 118.727 130.435 118.733 130.834C117.109 130.834 115.486 130.834 113.862 130.834C113.862 129.636 113.807 128.432 113.898 127.24C113.977 126.242 113.62 126.006 112.656 126.012C109.027 126.018 109.027 125.982 109.033 129.636C109.033 130.036 109.039 130.435 109.045 130.834H109.039Z" fill="#00ADE8"/>
<path d="M99.3789 106.691C105.831 106.673 112.278 106.649 118.73 106.631C123.165 106.649 127.606 106.691 132.04 106.655C133.016 106.649 133.367 106.879 133.282 107.883C133.179 109.081 133.234 110.298 133.222 111.508C121.941 111.508 110.666 111.508 99.385 111.508V106.691H99.3789Z" fill="white"/>
<path d="M99.376 111.508C110.657 111.508 121.932 111.508 133.213 111.508C133.213 113.129 133.213 114.751 133.213 116.373C121.932 116.373 110.657 116.373 99.376 116.373V111.508Z" fill="#00ADE8"/>
<path d="M99.3789 116.373C110.66 116.373 121.941 116.373 133.216 116.373C133.216 117.977 133.216 119.58 133.216 121.19C121.935 121.19 110.654 121.19 99.3789 121.19C99.3789 119.586 99.3789 117.983 99.3789 116.373Z" fill="white"/>
<path d="M99.3783 126.048C100.954 126.127 103.062 125.352 103.946 126.357C104.722 127.234 104.146 129.298 104.171 130.835C102.583 130.816 100.457 131.549 99.5661 130.556C98.7907 129.691 99.3905 127.597 99.3783 126.048Z" fill="white"/>
<path d="M109.036 130.834C109.036 130.435 109.024 130.036 109.024 129.636C109.024 125.981 109.024 126.018 112.647 126.012C113.61 126.012 113.968 126.242 113.889 127.24C113.798 128.432 113.859 129.636 113.853 130.834C112.247 130.834 110.642 130.834 109.03 130.834H109.036Z" fill="white"/>
<path d="M118.735 130.835C118.735 130.435 118.723 130.036 118.723 129.637C118.723 125.982 118.723 126.018 122.346 126.012C123.309 126.012 123.666 126.242 123.588 127.241C123.497 128.433 123.557 129.637 123.551 130.835C121.946 130.835 120.34 130.835 118.729 130.835H118.735Z" fill="white"/>
<path d="M128.423 130.835C128.501 129.261 127.726 127.156 128.731 126.272C129.61 125.498 131.676 126.073 133.215 126.048C133.209 127.597 133.802 129.697 133.027 130.556C132.136 131.549 130.01 130.816 128.423 130.835Z" fill="white"/>
<path d="M29.0742 21.9958C29.0742 20.0837 29.056 18.1716 29.0742 16.2595C29.1348 11.576 33.7271 8.52634 38.0045 10.4868C42.0758 12.3505 46.0623 14.4079 50.0306 16.4833C52.2177 17.627 53.2962 19.5996 53.2719 22.0563C53.2477 24.4464 52.1753 26.3767 50.0427 27.49C46.0744 29.5655 42.0879 31.6228 38.0166 33.4865C33.6787 35.4773 29.1105 32.3852 29.0681 27.5808C29.05 25.7171 29.0681 23.8595 29.0681 21.9958H29.0742Z" fill="#00ADE8"/>
</svg>
