<svg width="86" height="24" viewBox="0 0 86 24" fill="none" xmlns="http://www.w3.org/2000/svg">
<path d="M23.1448 2.16053V11.2796C20.3507 11.279 17.6712 10.1688 15.6957 8.19331C13.7202 6.21778 12.6104 3.53864 12.6104 0.745117H21.7291C22.1046 0.745117 22.4647 0.894241 22.7302 1.15968C22.9957 1.42512 23.1448 1.78514 23.1448 2.16053Z" fill="#E26843"/>
<path d="M10.7786 0.745117V11.2796H5.51137C4.81967 11.2796 4.13474 11.1433 3.49569 10.8786C2.85664 10.6139 2.27598 10.2259 1.78688 9.73684C1.29777 9.24773 0.909788 8.66708 0.645085 8.02803C0.380382 7.38898 0.244141 6.70405 0.244141 6.01235C0.244141 5.32064 0.380382 4.63571 0.645085 3.99666C0.909788 3.35761 1.29777 2.77696 1.78688 2.28785C2.27598 1.79875 2.85664 1.41076 3.49569 1.14606C4.13474 0.881358 4.81967 0.745117 5.51137 0.745117H10.7786Z" fill="#A6CE37"/>
<path d="M23.1448 18.2648C23.1454 18.9717 23.0095 19.6718 22.745 20.325C22.4804 20.9782 22.0924 21.5717 21.6031 22.0716C21.1137 22.5715 20.5327 22.9679 19.8933 23.2381C19.2538 23.5083 18.5685 23.6471 17.8765 23.6465H12.6104V12.8831H17.8765C18.5684 12.8828 19.2536 13.0218 19.8929 13.2921C20.5322 13.5625 21.1131 13.9589 21.6024 14.4587C22.0917 14.9585 22.4797 15.5519 22.7444 16.2049C23.009 16.858 23.1451 17.558 23.1448 18.2648Z" fill="#FFD740"/>
<path d="M48.7942 18.4946C48.7936 19.1414 48.9206 19.7819 49.1679 20.3795C49.4152 20.9771 49.778 21.5201 50.2354 21.9775C50.6928 22.4348 51.2359 22.7974 51.8337 23.0447C52.4314 23.2919 53.0721 23.4189 53.7189 23.4183H58.6416V13.5709H53.7189C53.0721 13.5706 52.4316 13.6978 51.834 13.9452C51.2364 14.1925 50.6934 14.5552 50.236 15.0124C49.7786 15.4697 49.4159 16.0126 49.1685 16.6101C48.9211 17.2076 48.7939 17.848 48.7942 18.4946Z" fill="#3A60FF"/>
<path d="M52.6873 18.608C52.687 18.999 52.7638 19.3863 52.9133 19.7477C53.0629 20.109 53.2822 20.4374 53.5588 20.7139C53.8353 20.9904 54.1637 21.2097 54.5252 21.3592C54.8866 21.5087 55.274 21.5855 55.6651 21.5851H58.6416V15.6309H55.6651C55.274 15.6307 54.8867 15.7076 54.5254 15.8571C54.164 16.0067 53.8357 16.226 53.5591 16.5025C53.2826 16.779 53.0633 17.1072 52.9137 17.4685C52.7641 17.8298 52.6872 18.217 52.6873 18.608Z" fill="#1E1E1E"/>
<path d="M83.8333 5.55433C83.8338 6.18603 83.7098 6.81165 83.4682 7.39537C83.2267 7.97909 82.8724 8.50947 82.4256 8.95616C81.9788 9.40284 81.4483 9.75706 80.8645 9.99856C80.2806 10.2401 79.6549 10.3641 79.023 10.3635H74.2148V0.745118H79.023C79.6548 0.744847 80.2804 0.869057 80.8641 1.11065C81.4479 1.35224 81.9783 1.70647 82.425 2.1531C82.8717 2.59973 83.226 3.13 83.4677 3.7136C83.7093 4.2972 83.8335 4.9227 83.8333 5.55433Z" fill="#E26843"/>
<path d="M80.1691 5.55525C80.1694 5.94631 80.0926 6.3336 79.9431 6.69495C79.7936 7.0563 79.5743 7.38463 79.2977 7.66115C79.0211 7.93767 78.6927 8.15695 78.3313 8.30645C77.9698 8.45594 77.5825 8.53272 77.1913 8.53238H74.2148V2.57813H77.1913C77.5824 2.57796 77.9697 2.65485 78.3311 2.8044C78.6924 2.95396 79.0208 3.17325 79.2973 3.44973C79.5739 3.72622 79.7932 4.05448 79.9428 4.41576C80.0924 4.77704 80.1693 5.16425 80.1691 5.55525Z" fill="#1E1E1E"/>
<path d="M42.2665 0.516588C42.9132 0.516034 43.5537 0.643039 44.1514 0.890336C44.749 1.13763 45.292 1.50037 45.7493 1.95778C46.2066 2.4152 46.5693 2.95832 46.8165 3.55607C47.0638 4.15382 47.1908 4.79447 47.1902 5.44135L47.1902 10.364L37.3428 10.364L37.3428 5.44135C37.3425 4.79455 37.4697 4.15403 37.717 3.5564C37.9643 2.95878 38.327 2.41576 38.7843 1.9584C39.2415 1.50104 39.7844 1.13829 40.3819 0.8909C40.9794 0.643505 41.6198 0.516311 42.2665 0.516588Z" fill="#A6CE37"/>
<path d="M42.2679 4.40976C42.6439 4.40942 43.0163 4.48621 43.3638 4.63574C43.7112 4.78527 44.0269 5.0046 44.2928 5.28118C44.5587 5.55775 44.7695 5.88615 44.9133 6.24758C45.057 6.60901 45.1308 6.99638 45.1305 7.38752L45.1305 10.364L39.4053 10.364L39.4053 7.38752C39.4051 6.99643 39.479 6.60914 39.6229 6.24778C39.7667 5.88643 39.9775 5.55809 40.2434 5.28155C40.5092 5.00501 40.8248 4.78567 41.1722 4.63608C41.5196 4.4865 41.8919 4.40959 42.2679 4.40976Z" fill="#1E1E1E"/>
<path d="M85.2063 23.1893H76.7637C76.4518 23.1893 76.1528 23.0655 75.9323 22.845C75.7118 22.6245 75.5879 22.3254 75.5879 22.0136V13.5709C76.8505 13.5688 78.1011 13.8159 79.2679 14.2983C80.4347 14.7806 81.4948 15.4887 82.3873 16.3817C83.2829 17.2745 83.9931 18.3356 84.4769 19.5039C84.9607 20.6723 85.2086 21.9248 85.2063 23.1893Z" fill="#FFD740"/>
<path d="M85.2067 20.2122H79.3773C79.162 20.2122 78.9555 20.1267 78.8032 19.9744C78.651 19.8222 78.5654 19.6157 78.5654 19.4004V13.5709C79.4372 13.5694 80.3007 13.7401 81.1064 14.0732C81.912 14.4062 82.644 14.8951 83.2602 15.5117C83.8787 16.1281 84.369 16.8608 84.7031 17.6675C85.0371 18.4742 85.2083 19.3391 85.2067 20.2122Z" fill="#1E1E1E"/>
<path d="M11.0076 23.6465H1.5599C1.21094 23.6465 0.876272 23.5079 0.629519 23.2611C0.382765 23.0144 0.244141 22.6797 0.244141 22.3308V12.8831C1.65703 12.8806 3.05649 13.1573 4.36222 13.697C5.66794 14.2368 6.85422 15.0291 7.85299 16.0285C8.85522 17.0275 9.64993 18.2149 10.1913 19.5223C10.7327 20.8298 11.0102 22.2314 11.0076 23.6465Z" fill="#3A60FF"/>
<path d="M27.9551 9.46675L28.7117 7.76843C29.6473 8.42055 30.7547 8.77407 31.8909 8.78334C33.2133 8.78334 33.7499 8.32924 33.7499 7.73891C33.7499 5.92252 28.1369 7.16902 28.1369 3.54985C28.1369 1.89467 29.4594 0.516479 32.1963 0.516479C33.4087 0.516479 34.648 0.809373 35.5416 1.37927L34.8546 3.09122C34.0443 2.60702 33.1238 2.3434 32.1828 2.32606C30.8626 2.32606 30.3529 2.82784 30.3529 3.4386C30.3574 5.23456 35.9704 3.99487 35.9704 7.57316C35.9704 9.20111 34.6345 10.5929 31.8819 10.5929C30.3574 10.5929 28.8083 10.1343 27.9551 9.46675Z" fill="white"/>
<path d="M48.7939 0.745117H51.0362V8.54789H55.8933V10.3635H48.7939V0.745117Z" fill="white"/>
<path d="M58.9974 2.55852H55.8936V0.745117H64.3669V2.55852H61.263V10.3635H58.9974V2.55852Z" fill="white"/>
<path d="M73.069 8.57156V10.3635H65.5117V0.745117H72.8893V2.53709H67.7571V4.62474H72.2887V6.35623H67.7571V8.58052L73.069 8.57156Z" fill="white"/>
<path d="M27.9551 22.2885L28.7117 20.5924C29.6473 21.2445 30.7547 21.598 31.8909 21.6073C33.2133 21.6073 33.7499 21.1532 33.7499 20.5629C33.7499 18.7465 28.1369 19.993 28.1369 16.3738C28.1369 14.7186 29.4594 13.3405 32.1963 13.3405C33.4087 13.3405 34.648 13.6333 35.5416 14.2032L34.8658 15.9106C34.0555 15.4265 33.135 15.1628 32.194 15.1455C30.8738 15.1455 30.3642 15.645 30.3642 16.258C30.3574 18.0585 35.9704 16.8188 35.9704 20.3971C35.9704 22.0251 34.6345 23.4169 31.8819 23.4169C30.3574 23.4169 28.8083 22.9492 27.9551 22.2885Z" fill="white"/>
<path d="M37.1143 18.3787C37.1143 15.4838 39.3903 13.3405 42.496 13.3405C45.6017 13.3405 47.8777 15.4702 47.8777 18.3787C47.8777 21.2872 45.5857 23.4169 42.496 23.4169C39.4063 23.4169 37.1143 21.2735 37.1143 18.3787ZM45.5719 18.3787C45.5719 16.5282 44.2517 15.2613 42.496 15.2613C40.7403 15.2613 39.4201 16.5282 39.4201 18.3787C39.4201 20.2291 40.7403 21.4961 42.496 21.4961C44.2517 21.4961 45.5696 20.2246 45.5696 18.3787H45.5719Z" fill="white"/>
<path d="M60.0156 13.5709H62.3057V23.1893H60.0156V13.5709Z" fill="white"/>
<path d="M71.1952 21.1294H66.6447L65.7767 23.1893H63.4512L67.8212 13.5709H70.0599L74.4436 23.1893H72.0633L71.1952 21.1294ZM70.4802 19.4393L68.9269 15.7564L67.3712 19.4393H70.4802Z" fill="white"/>
</svg>
