<svg width="163" height="154" viewBox="0 0 163 154" fill="none" xmlns="http://www.w3.org/2000/svg">
<path d="M153.574 68.5417C153.129 82.0527 147.445 92.6962 136.076 100.18C135.053 100.854 134.754 101.318 135.396 102.481C136.547 104.554 137.564 106.709 138.505 108.89C138.931 109.876 139.478 110.067 140.445 109.908C142.218 109.615 144.011 109.456 145.792 109.183C147.299 108.948 148.392 109.45 149.053 110.817C153.294 119.616 157.624 128.372 161.719 137.241C164.332 142.906 161.7 149.525 156.143 152.119C150.535 154.739 143.903 152.545 141.112 146.918C136.82 138.258 132.694 129.522 128.491 120.824C127.83 119.451 128.053 118.281 129.152 117.232C130.57 115.878 131.937 114.473 133.381 113.15C133.972 112.61 134.15 112.177 133.756 111.414C132.573 109.113 131.448 106.786 130.367 104.433C130.011 103.651 129.693 103.46 128.828 103.791C125.745 104.948 122.559 105.699 119.259 105.883C118.363 105.934 117.905 106.112 118.14 107.186C118.407 108.369 118.503 109.59 118.611 110.804C118.789 112.705 117.918 113.818 116.004 114.091C108.406 115.159 100.808 116.208 93.2101 117.264C82.8337 118.701 72.4572 120.138 62.0808 121.568C51.6535 123.005 41.2199 124.442 30.7926 125.879C26.6026 126.458 22.4062 127.017 18.2162 127.647C14.9482 128.136 14.058 127.462 13.6002 124.156C11.6419 110.009 9.65186 95.8625 7.69356 81.7157C5.73526 67.5689 3.8024 53.4158 1.85046 39.2626C1.27187 35.0727 0.674207 30.8827 0.0701868 26.6927C-0.266793 24.3592 0.59791 23.1893 2.91862 22.8651C7.47738 22.2356 12.0361 21.5807 16.6013 20.9894C17.5041 20.875 17.7203 20.6143 17.5677 19.686C17.1417 17.0792 16.7857 14.4533 16.4995 11.8211C16.2579 9.60843 17.1671 8.57206 19.3353 8.27323C33.641 6.29586 47.9467 4.30577 62.2525 2.31568C67.7014 1.55906 73.1503 0.789734 78.5992 0.0521932C80.7164 -0.233922 81.8609 0.649855 82.1979 2.86248C82.5857 5.42479 82.9418 7.99347 83.2342 10.5685C83.336 11.465 83.5776 11.6875 84.5122 11.5477C89.7449 10.772 94.9967 10.1171 100.229 9.34139C103.745 8.82002 104.629 9.39861 105.112 12.8892C105.907 18.5988 106.702 24.3147 107.427 30.0307C107.592 31.3214 107.783 31.8109 109.385 31.5375C129.572 28.1105 148.055 40.5025 152.684 60.4733C153.294 63.1119 153.599 65.7887 153.568 68.529L153.574 68.5417ZM81.4921 53.5684C79.3176 53.7655 77.4229 53.9117 75.5346 54.1088C58.5839 55.8637 41.6331 57.6249 24.6761 59.3797C22.1074 59.6467 22.1137 59.6277 21.8721 57.0145C21.834 56.5948 21.7958 56.1689 21.7005 55.7556C21.4207 54.5984 21.7195 54.1152 23.0484 54.0071C27.8488 53.6129 32.6364 53.0661 37.4241 52.5829C46.2173 51.6864 55.0106 50.7899 63.8039 49.8934C70.3845 49.2194 76.9651 48.5518 83.5521 47.8842C84.2515 47.8143 84.7983 47.6172 85.2625 46.9623C89.408 41.0556 94.8187 36.6813 101.469 33.89C102.289 33.5467 102.442 33.1334 102.334 32.3514C101.558 26.8516 100.795 21.3455 100.064 15.8394C99.9624 15.0764 99.6636 14.892 98.926 15.0001C94.3736 15.6613 89.8149 16.2972 85.2498 16.8948C84.3469 17.0156 84.207 17.3081 84.366 18.2237C84.8301 20.875 85.1925 23.5454 85.4596 26.2158C85.6694 28.2949 84.8683 29.255 82.7955 29.5665C78.8853 30.1578 74.9623 30.6792 71.0457 31.226C65.1454 32.0462 59.2387 32.86 53.3384 33.6866C47.5907 34.4877 41.8493 35.3206 36.1016 36.109C31.7081 36.713 27.321 37.3234 22.9149 37.8384C20.9947 38.061 19.9647 37.1009 19.6913 35.1998C19.3035 32.4849 18.8775 29.7763 18.5151 27.0551C18.426 26.3748 18.2099 26.2094 17.5232 26.3048C13.9118 26.8325 10.294 27.3094 6.6699 27.7863C5.94508 27.8816 5.73526 28.1232 5.88786 28.918C6.23119 30.7364 6.40922 32.5803 6.66354 34.4178C8.20221 45.5254 9.74087 56.6394 11.2732 67.747C12.8118 78.8546 14.3441 89.9686 15.8828 101.076C16.8047 107.733 17.7521 114.384 18.6613 121.041C18.7503 121.676 18.7567 122.109 19.6532 121.982C29.025 120.646 38.4096 119.349 47.7878 118.052C58.8445 116.52 69.9013 114.981 80.958 113.449C91.1755 112.038 101.399 110.632 111.61 109.195C112.119 109.126 113.124 109.304 112.78 108.242C112.507 107.383 113.276 106.023 111.56 105.794C100.732 104.351 92.0466 99.2323 85.5422 90.4454C85.1226 89.8732 84.7411 89.5998 83.9909 89.7015C82.0008 89.9622 79.9916 90.1275 77.9888 90.3373C61.9346 92.0159 45.8804 93.7008 29.8261 95.3793C28.4846 95.5192 26.717 96.333 25.9159 95.4492C25.1656 94.6227 25.5281 92.8297 25.3182 91.4754C25.1911 90.6616 25.3882 90.3564 26.2465 90.2737C31.3584 89.7778 36.4576 89.231 41.5632 88.7033C54.9852 87.3109 68.4071 85.9121 81.9626 84.5069C79.7881 79.6112 78.5356 74.5819 78.4402 69.2729C78.3385 63.9067 79.3494 58.7757 81.4858 53.5684H81.4921ZM115.19 36.357C96.8152 37.0437 83.1961 51.8517 83.9018 70.3665C84.544 87.1964 99.7844 101.254 116.716 100.637C135.18 99.9635 148.824 85.13 148.081 66.5389C147.407 49.7027 132.173 35.7212 115.19 36.357ZM24.8541 32.0653C27.0858 31.7537 29.273 31.4549 31.4538 31.1497C37.1443 30.3549 42.8412 29.5602 48.5317 28.7718C54.2794 27.9706 60.0208 27.1759 65.7685 26.3875C69.8949 25.8216 74.0213 25.2176 78.1541 24.728C79.5402 24.5627 79.6038 23.876 79.4448 22.7634C78.6818 17.4861 77.9316 12.2025 77.2703 6.91259C77.1432 5.87622 76.8571 5.79356 75.9033 5.92708C65.5396 7.39581 55.1632 8.78823 44.7931 10.2252C37.6148 11.217 30.4492 12.2661 23.2709 13.2389C22.3871 13.3597 22.1519 13.595 22.2854 14.4978C23.1692 20.3409 23.9957 26.184 24.8477 32.0653H24.8541ZM157.293 141.755C157.306 140.948 157.141 140.166 156.798 139.454C152.97 131.468 149.123 123.495 145.296 115.509C145.067 115.032 144.87 114.759 144.247 114.816C140.909 115.115 137.602 115.445 135.504 118.612C135.364 118.828 135.155 119.012 134.938 119.165C134.194 119.68 134.214 120.214 134.608 121.022C136.916 125.701 139.154 130.419 141.411 135.117C142.918 138.252 144.38 141.412 145.957 144.515C147.241 147.039 150.013 148.26 152.62 147.618C155.399 146.931 157.287 144.559 157.287 141.768L157.293 141.755Z" fill="#A8AEFF"/>
<path d="M24.8513 32.0655C23.9993 26.1842 23.1727 20.3348 22.2889 14.498C22.1491 13.5888 22.3907 13.3536 23.2745 13.2391C30.4528 12.2663 37.6247 11.2173 44.7966 10.2254C55.1667 8.78846 65.5432 7.39604 75.9069 5.92731C76.8606 5.79379 77.1467 5.87645 77.2739 6.91282C77.9351 12.2028 78.6854 17.4864 79.4483 22.7636C79.6073 23.8762 79.5437 24.5629 78.1576 24.7282C74.0185 25.2178 69.8985 25.8218 65.772 26.3877C60.0243 27.1761 54.2766 27.9709 48.5352 28.772C42.8447 29.5604 37.1478 30.3615 31.4573 31.1499C29.2765 31.4551 27.0893 31.7539 24.8576 32.0655H24.8513Z" fill="#1D2152"/>
<path d="M157.284 141.755C157.284 144.547 155.396 146.918 152.617 147.605C150.017 148.253 147.244 147.033 145.954 144.502C144.377 141.406 142.915 138.239 141.408 135.105C139.144 130.4 136.906 125.688 134.605 121.009C134.21 120.208 134.191 119.674 134.935 119.152C135.151 119.006 135.355 118.815 135.501 118.599C137.593 115.433 140.899 115.109 144.243 114.803C144.867 114.746 145.064 115.02 145.293 115.496C149.12 123.482 152.967 131.455 156.794 139.441C157.138 140.16 157.303 140.942 157.29 141.743L157.284 141.755Z" fill="#1D2152"/>
<path d="M53.28 73.4249C52.8604 73.463 52.428 73.4503 52.0147 73.5457C51.2518 73.7237 50.9466 73.4376 50.9084 72.681C50.8448 71.4666 50.7622 70.2458 50.6159 69.0442C50.4824 67.9442 51.309 68.1604 51.8558 68.1095C54.7042 67.8488 57.5526 67.639 60.4011 67.4101C65.4621 67.0032 70.5295 66.6217 75.5906 66.1512C76.7923 66.0368 77.4026 66.2593 77.231 67.5754C77.2055 67.7789 77.2437 67.9951 77.2628 68.2112C77.498 71.562 77.4917 71.5429 74.1791 71.7909C70.6948 72.0452 67.217 72.3377 63.7327 72.6174C60.2485 72.8972 56.7706 73.1833 53.2863 73.463V73.4249H53.28Z" fill="#A8AEFF"/>
<path d="M140.509 68.5354C140.083 77.8691 136.052 85.0728 127.914 89.8796C126.954 90.4454 126.407 90.4836 125.981 89.2883C125.555 88.1057 124.423 86.9485 124.525 85.8676C124.62 84.8503 126.337 84.5451 127.284 83.8394C134.215 78.7211 136.923 69.4446 133.668 61.4779C133.197 60.3335 133.439 59.9011 134.444 59.5578C134.596 59.5069 134.742 59.4433 134.882 59.3797C138.354 57.7266 138.373 57.7203 139.467 61.4906C140.128 63.7859 140.535 66.1193 140.509 68.5418V68.5354Z" fill="#A8AEFF"/>
</svg>
