<svg width="86" height="24" viewBox="0 0 86 24" fill="none" xmlns="http://www.w3.org/2000/svg">
<path d="M24.2728 1.62624V10.9584C18.3184 10.9584 13.4907 6.13201 13.4907 0.179199H22.8253C23.6249 0.179199 24.2728 0.826903 24.2728 1.62624Z" fill="#E26843"/>
<path d="M11.6922 0.179199V10.9584H6.30118C3.32182 10.9584 0.910156 8.54736 0.910156 5.56879C0.910156 4.08058 1.51253 2.73319 2.48759 1.75622C3.46699 0.781412 4.81258 0.179199 6.30118 0.179199H11.6922Z" fill="#A6CE37"/>
<path d="M24.2728 18.1452C24.2728 19.6334 23.6704 20.9808 22.6953 21.9578C21.7159 22.9326 20.3703 23.5348 18.8817 23.5348H13.4907V12.7556H18.8817C21.8611 12.7556 24.2728 15.1666 24.2728 18.1452Z" fill="#FFD740"/>
<path d="M11.6922 23.5348H2.22758C1.49953 23.5348 0.910156 22.9456 0.910156 22.2177V12.7556C3.88952 12.7556 6.5807 13.9622 8.53517 15.914C10.4875 17.8658 11.6922 20.5562 11.6922 23.5348Z" fill="#3A60FF"/>
<path d="M28.8555 9.27088L29.6334 7.54656C30.4676 8.15527 31.7135 8.57985 32.9009 8.57985C34.2595 8.57985 34.8099 8.12711 34.8099 7.5184C34.8099 5.66627 29.0526 6.93784 29.0526 3.26175C29.0526 1.57859 30.4112 0.179199 33.2259 0.179199C34.4697 0.179199 35.7438 0.475973 36.6625 1.05652L35.9561 2.79601C35.0374 2.27395 34.0883 2.01833 33.2129 2.01833C31.8543 2.01833 31.3321 2.5274 31.3321 3.1491C31.3321 4.97307 37.0894 3.71449 37.0894 7.34943C37.0894 9.00443 35.7178 10.4168 32.8879 10.4168C31.317 10.4168 29.733 9.94891 28.8555 9.27088Z" fill="white"/>
<path d="M45.5058 8.12443H40.91L40.0324 10.2452H37.6836L42.0974 0.347656H44.3595L48.7863 10.2452H46.3812L45.5058 8.12443ZM44.7842 6.38711L43.2133 2.59837L41.6424 6.38711H44.7842Z" fill="white"/>
<path d="M49.9795 0.347656H52.2698V8.38005H57.234V10.2473H49.9795V0.347656Z" fill="white"/>
<path d="M60.4047 2.21495H57.2368V0.347656H65.8651V2.21495H62.6972V10.2473H60.4069V2.21495H60.4047Z" fill="white"/>
<path d="M74.7228 8.40821V10.2473H67.0566V0.347656H74.5386V2.18679H69.334V4.33569H73.9298V6.11633H69.334V8.40604H74.7228V8.40821Z" fill="white"/>
<path d="M75.9146 0.347656H80.4129C83.6522 0.347656 85.8732 2.29943 85.8732 5.2975C85.8732 8.29556 83.6522 10.2473 80.4129 10.2473H75.9146V0.347656ZM80.3002 8.36488C82.2655 8.36488 83.5526 7.19079 83.5526 5.2975C83.5526 3.40421 82.2655 2.23011 80.3002 2.23011H78.207V8.36705H80.3002V8.36488Z" fill="white"/>
<path d="M28.8555 22.3895L29.6334 20.6652C30.4676 21.2739 31.7135 21.6985 32.9009 21.6985C34.2595 21.6985 34.8099 21.2458 34.8099 20.637C34.8099 18.7849 29.0526 20.0565 29.0526 16.3804C29.0526 14.6972 30.4112 13.2979 33.2259 13.2979C34.4697 13.2979 35.7438 13.5946 36.6625 14.1752L35.9561 15.9147C35.0374 15.3926 34.0883 15.137 33.2129 15.137C31.8543 15.137 31.3321 15.646 31.3321 16.2678C31.3321 18.0917 37.0894 16.8331 37.0894 20.4681C37.0894 22.1231 35.7178 23.5355 32.8879 23.5355C31.317 23.5333 29.733 23.0676 28.8555 22.3895Z" fill="white"/>
<path d="M38.2725 18.4149C38.2725 15.4732 40.5628 13.2961 43.6895 13.2961C46.801 13.2961 49.1065 15.4602 49.1065 18.4149C49.1065 21.3697 46.801 23.5338 43.6895 23.5338C40.5628 23.5338 38.2725 21.3567 38.2725 18.4149ZM46.7859 18.4149C46.7859 16.5347 45.4554 15.2479 43.6895 15.2479C41.9214 15.2479 40.591 16.5347 40.591 18.4149C40.591 20.2952 41.9214 21.582 43.6895 21.582C45.4576 21.5841 46.7859 20.2974 46.7859 18.4149Z" fill="white"/>
<path d="M50.2983 18.4149C50.2983 15.432 52.5887 13.2961 55.672 13.2961C57.3838 13.2961 58.8117 13.9179 59.7456 15.0486L58.2744 16.4069C57.6092 15.6443 56.7749 15.2479 55.7847 15.2479C53.9321 15.2479 52.6168 16.5498 52.6168 18.4149C52.6168 20.2801 53.9321 21.582 55.7847 21.582C56.7749 21.582 57.6092 21.1856 58.2744 20.4079L59.7456 21.7661C58.8117 22.912 57.3838 23.5338 55.659 23.5338C52.5908 23.5338 50.2983 21.4 50.2983 18.4149Z" fill="white"/>
<path d="M60.9395 13.4663H63.2298V23.3638H60.9395V13.4663Z" fill="white"/>
<path d="M72.2455 21.2431H67.6497L66.7722 23.3638H64.4233L68.8371 13.4663H71.0993L75.5261 23.3638H73.1209L72.2455 21.2431ZM71.524 19.5036L69.953 15.7149L68.3821 19.5036H71.524Z" fill="white"/>
<path d="M76.7202 13.4663H79.0105V21.4987H83.9747V23.366H76.7202V13.4663Z" fill="white"/>
</svg>
