<svg width="150" height="150" viewBox="0 0 150 150" fill="none" xmlns="http://www.w3.org/2000/svg">
<path d="M0 51.2631C1.02653 31.0358 10.312 14.9437 29.4253 5.58243C47.0222 -3.03228 64.5257 -1.54497 80.8744 9.13446C92.7729 16.9093 100.198 28.1603 102.852 42.1526C105.896 58.1747 102.122 72.6628 91.7405 85.3137C90.8481 86.4044 90.8131 86.9584 91.863 87.9267C94.1843 90.0672 96.3949 92.3244 98.5646 94.6224C99.3637 95.4682 99.8653 95.6606 100.647 94.6516C101.172 93.9692 101.866 93.4034 102.548 92.8552C105.354 90.6038 109.273 90.528 111.892 93.0068C116.266 97.1421 120.489 101.447 124.718 105.733C125.989 107.028 125.873 108.866 124.654 110.032C123.563 111.07 121.895 111.018 120.577 109.845C119.813 109.169 119.095 108.44 118.407 107.687C117.975 107.215 117.701 107.227 117.252 107.687C114.044 110.936 110.819 114.167 107.558 117.369C107.004 117.912 107.185 118.186 107.634 118.629C115.199 126.177 122.717 133.776 130.335 141.277C133.572 144.462 138.319 144.363 141.3 141.289C144.263 138.233 144.21 133.689 141.107 130.423C139.165 128.381 137.106 126.457 135.158 124.421C134.172 123.395 133.84 122.146 134.633 120.828C135.333 119.668 136.406 119.271 137.742 119.452C138.36 119.533 138.856 119.854 139.258 120.257C141.586 122.601 144.082 124.783 146.188 127.331C150.614 132.692 150.364 140.017 145.633 145.255C141.44 149.898 133.898 150.825 128.462 147.296C127.453 146.643 126.532 145.815 125.68 144.963C115.053 134.36 104.438 123.744 93.8285 113.123C90.1365 109.431 90.1365 105.174 93.7877 101.482C94.9231 100.331 94.9056 99.1699 93.7352 97.9995C91.6063 95.8706 89.4425 93.7709 87.3661 91.5895C86.7011 90.8954 86.3045 90.9596 85.6338 91.5312C80.3845 96.0398 74.4703 99.3585 67.8736 101.476C60.0113 104.001 52.009 104.637 43.8668 103.325C31.0293 101.248 20.4315 95.1357 12.0967 85.2145C5.86756 77.8246 2.09973 69.2508 0.670745 59.6679C0.297461 57.1598 0.22747 54.6402 0 51.2631ZM98.0397 52.1322C98.0513 26.8421 77.2932 6.0782 51.9857 6.06653C26.6957 6.05487 5.93172 26.8188 5.92006 52.1205C5.91423 77.4164 26.6607 98.1745 51.9682 98.1861C77.264 98.1978 98.0222 77.4514 98.0338 52.138L98.0397 52.1322ZM106.981 97.043C106.549 97.078 106.124 97.3929 105.739 97.772C103.027 100.484 100.314 103.202 97.5964 105.914C96.6573 106.853 96.6865 107.769 97.6197 108.691C99.1012 110.16 100.606 111.613 102.035 113.135C102.624 113.759 102.951 113.683 103.516 113.106C106.649 109.915 109.816 106.76 112.989 103.616C113.484 103.126 113.671 102.817 113.064 102.24C111.513 100.77 110.031 99.2302 108.515 97.7195C108.13 97.3346 107.698 97.0313 106.975 97.0371L106.981 97.043Z" fill="#8A5F0D"/>
<path d="M28.9681 149.547C21.5083 149.25 15.5882 146.141 11.6046 139.673C10.9805 138.658 10.2514 138.04 9.11991 137.69C7.07851 137.06 5.15959 136.121 3.42732 134.849C-1.02293 131.571 -1.0171 126.602 3.45065 123.342C5.26458 122.012 7.29431 121.073 9.42903 120.419C10.3914 120.128 10.9513 119.603 11.4588 118.775C15.7049 111.846 21.9632 108.41 30.0472 108.778C37.0521 109.098 42.5114 112.423 46.2151 118.413C46.8975 119.515 47.6907 120.209 48.9039 120.589C51.3302 121.347 53.5758 122.461 55.4655 124.205C58.5684 127.063 58.6034 130.988 55.5705 133.904C53.5991 135.8 51.1844 136.92 48.6414 137.748C47.5915 138.086 46.95 138.652 46.3842 139.574C42.4181 146.048 36.533 149.215 28.9623 149.547H28.9681ZM28.9681 134.668C33.2026 134.692 37.3904 134.33 41.5665 133.589C42.733 133.385 43.048 132.843 43.2288 131.857C45.0369 122.111 37.0871 113.625 27.2242 114.739C19.0294 115.666 13.0394 123.452 14.7192 132.02C14.8883 132.884 15.1741 133.368 16.2298 133.56C20.4468 134.336 24.6929 134.686 28.9681 134.668V134.668ZM19.6885 140.064C24.2496 144.741 33.9667 144.735 38.1894 140.064C32.0186 140.723 25.8769 140.717 19.6885 140.064ZM49.3471 131.134C50.4087 130.609 51.826 130.166 51.8202 129.122C51.8202 128.037 50.4378 127.564 49.3471 127.15V131.134V131.134ZM8.55415 127.15C7.44596 127.605 6.06948 128.078 6.09864 129.133C6.1278 130.154 7.49845 130.65 8.55415 131.076V127.15V127.15Z" fill="#8A5F0D"/>
<path d="M131.278 0.22803C141.199 0.222198 149.341 8.3353 149.365 18.2565C149.388 28.2419 141.222 36.4075 131.231 36.3783C121.298 36.3491 113.203 28.2127 113.214 18.2857C113.226 8.35863 121.351 0.239696 131.278 0.22803V0.22803ZM143.48 18.3673C143.555 11.8173 138.055 6.24724 131.389 6.11893C124.874 5.99644 119.269 11.4966 119.105 18.1748C118.948 24.7307 124.605 30.4641 131.266 30.4932C137.851 30.5224 143.404 25.0106 143.48 18.3673Z" fill="#8A5F0D"/>
<path d="M130.716 87.4074C129.725 87.4074 128.961 86.9116 128.296 86.2467C125.304 83.2663 122.3 80.2975 119.337 77.2821C117.774 75.6898 117.768 74.1441 119.319 72.5635C122.312 69.5131 125.333 66.4918 128.389 63.5055C129.941 61.9891 131.451 61.9774 132.991 63.4822C136.082 66.5035 139.138 69.5539 142.16 72.6452C143.6 74.1208 143.624 75.6839 142.195 77.1537C139.144 80.28 136.03 83.3479 132.927 86.4217C132.332 87.0108 131.609 87.4191 130.722 87.4132L130.716 87.4074ZM136.071 74.949C135.948 74.7624 135.89 74.6282 135.791 74.5291C134.216 72.9485 132.629 71.3737 131.055 69.7872C130.6 69.3323 130.366 69.7697 130.115 70.0205C128.663 71.4553 127.24 72.9135 125.776 74.3308C125.309 74.7799 125.356 75.0657 125.799 75.4973C127.263 76.9146 128.71 78.3552 130.127 79.8251C130.588 80.3033 130.874 80.2392 131.299 79.8017C132.723 78.3378 134.175 76.9088 135.616 75.4623C135.779 75.299 135.919 75.1182 136.076 74.9432L136.071 74.949Z" fill="#8A5F0D"/>
<path d="M144.766 101.639C146.323 101.662 147.618 102.975 147.612 104.514C147.606 106.043 146.27 107.372 144.742 107.39C143.173 107.402 141.756 105.967 141.814 104.415C141.873 102.876 143.22 101.616 144.771 101.639H144.766Z" fill="#8A5F0D"/>
<path d="M125.155 49.8051C125.143 51.3041 123.778 52.6689 122.273 52.6864C120.786 52.7039 119.392 51.3449 119.357 49.8401C119.322 48.2828 120.745 46.8597 122.308 46.8947C123.819 46.9297 125.16 48.3062 125.149 49.811L125.155 49.8051Z" fill="#8A5F0D"/>
<path d="M127.098 115.171C127.069 113.584 128.445 112.196 130.038 112.208C131.566 112.219 132.902 113.572 132.907 115.106C132.907 116.687 131.653 118.011 130.108 118.058C128.486 118.104 127.133 116.804 127.104 115.171H127.098Z" fill="#8A5F0D"/>
<path d="M81.705 129.991C83.204 129.98 84.5863 131.327 84.6213 132.838C84.6563 134.401 83.239 135.824 81.67 135.789C80.1536 135.754 78.8179 134.383 78.8237 132.878C78.8354 131.374 80.2002 130.009 81.705 129.997V129.991Z" fill="#8A5F0D"/>
<path d="M98.0396 52.1325C98.0279 77.4459 77.2698 98.1923 51.9739 98.1807C26.6664 98.169 5.91412 77.4167 5.92579 52.115C5.93162 26.8133 26.7014 6.04937 51.9914 6.06104C77.2931 6.07271 98.0571 26.8367 98.0454 52.1267L98.0396 52.1325ZM86.9694 51.4734C86.8994 31.8877 70.8948 15.9472 51.3207 15.9647C31.7699 15.9881 15.8003 32.0218 15.8178 51.6134C15.8412 71.1525 31.9391 87.1863 51.4607 87.1163C71.0523 87.0463 87.0335 71.0067 86.9635 51.4734H86.9694Z" fill="#F7F9FA"/>
<path d="M106.984 97.0488C107.702 97.0488 108.133 97.3521 108.524 97.7312C110.041 99.2419 111.522 100.782 113.074 102.251C113.68 102.829 113.494 103.138 112.998 103.628C109.819 106.772 106.658 109.927 103.526 113.118C102.96 113.689 102.633 113.771 102.044 113.147C100.615 111.624 99.1104 110.172 97.6289 108.702C96.6957 107.775 96.6666 106.865 97.6056 105.926C100.324 103.214 103.036 100.496 105.748 97.7837C106.133 97.3988 106.553 97.0838 106.99 97.0547L106.984 97.0488Z" fill="#F7F9FA"/>
<path d="M28.9727 134.669C24.6916 134.686 20.4513 134.336 16.2343 133.56C15.1786 133.368 14.8928 132.884 14.7237 132.021C13.0439 123.453 19.0281 115.666 27.2287 114.739C37.0916 113.625 45.0472 122.111 43.2333 131.857C43.0525 132.837 42.7375 133.38 41.571 133.59C37.3949 134.33 33.2071 134.686 28.9727 134.669V134.669Z" fill="#F7F9FA"/>
<path d="M19.6875 140.064C25.8759 140.723 32.0176 140.723 38.1884 140.064C33.9656 144.73 24.2486 144.736 19.6875 140.064V140.064Z" fill="#F7F9FA"/>
<path d="M49.3486 131.134V127.15C50.4393 127.565 51.8158 128.043 51.8216 129.122C51.8216 130.166 50.4102 130.609 49.3486 131.134V131.134Z" fill="#F7F9FA"/>
<path d="M8.55948 127.151V131.076C7.50379 130.65 6.13313 130.155 6.10397 129.134C6.07481 128.078 7.45129 127.606 8.55948 127.151V127.151Z" fill="#F7F9FA"/>
<path d="M143.476 18.3676C143.401 25.0109 137.848 30.5227 131.263 30.4935C124.602 30.4643 118.939 24.7309 119.102 18.1751C119.265 11.491 124.87 5.99671 131.385 6.1192C138.052 6.24751 143.552 11.8176 143.476 18.3676Z" fill="#F5BF5A"/>
<path d="M136.078 74.9491C135.926 75.124 135.781 75.3049 135.617 75.4682C134.177 76.9146 132.719 78.3436 131.301 79.8076C130.875 80.245 130.59 80.3092 130.129 79.8309C128.712 78.3611 127.271 76.9205 125.801 75.5032C125.358 75.0715 125.311 74.7916 125.778 74.3366C127.242 72.9193 128.671 71.4612 130.117 70.0264C130.368 69.7756 130.607 69.344 131.056 69.7931C132.631 71.3737 134.218 72.9485 135.792 74.535C135.891 74.6341 135.95 74.7683 136.072 74.9549L136.078 74.9491Z" fill="#F7F9FA"/>
<path d="M86.9743 51.4731C87.0443 71.0005 71.0631 87.0459 51.4715 87.1159C31.9499 87.1859 15.852 71.1522 15.8286 51.613C15.8053 32.0214 31.7807 15.9877 51.3315 15.9644C70.9056 15.9411 86.9102 31.8815 86.9802 51.4731H86.9743ZM74.7609 33.5262C74.7084 33.2405 74.7143 33.188 74.6909 33.1588C74.5451 32.9663 74.4051 32.768 74.2418 32.5872C67.2369 24.5383 58.4122 20.8112 47.8086 22.1119C36.8434 23.4592 29.0744 29.4784 24.2684 39.3938C23.8076 40.3445 23.9476 40.642 25.0499 40.6187C28.112 40.5662 31.1741 40.5487 34.2362 40.6128C39.9988 40.7236 43.1717 45.0281 41.6086 50.5457C41.0662 52.4588 41.5094 53.0887 43.475 53.1004C46.8287 53.1237 50.1825 53.0595 53.5304 53.1353C55.4901 53.182 56.6858 54.3835 56.68 56.0516C56.68 57.7372 55.4785 58.8979 53.5129 58.9271C49.9667 58.9796 46.4205 58.9563 42.8743 58.9271C42.1569 58.9213 41.4103 58.8221 40.7279 58.6063C36.5284 57.2823 34.6912 53.5028 35.986 48.9651C36.4934 47.192 36.0852 46.492 34.3645 46.4687C30.5734 46.4221 26.7822 46.4629 22.9969 46.4454C22.3495 46.4454 22.0578 46.6379 21.9645 47.3261C21.3463 51.8289 21.6787 56.2558 23.1019 60.5602C29.3602 79.5627 51.3315 87.1976 68.0185 76.1798C69.5991 75.1358 71.1389 73.9926 72.4804 72.3012H70.8181C63.7724 72.3012 56.7266 72.3012 49.6809 72.3012C49.1501 72.3012 48.6077 72.3128 48.0828 72.2312C46.7471 72.0212 45.7264 70.8489 45.6622 69.519C45.6039 68.2767 46.4963 67.0694 47.7386 66.6844C48.3977 66.4803 49.0743 66.4744 49.7567 66.4744C58.4531 66.4744 67.1553 66.4744 75.8516 66.4744C76.5107 66.4744 77.0998 66.5736 77.5314 65.7337C81.76 57.4923 82.2908 49.0817 78.9662 40.4145C78.6454 39.5746 78.2138 39.3588 77.3681 39.3646C71.2439 39.3996 65.1255 39.3821 59.0013 39.3821C58.4706 39.3821 57.9281 39.3821 57.4032 39.3122C56.0442 39.1197 55.0235 38.0057 54.9302 36.6583C54.8427 35.3518 55.7467 34.0745 57.0882 33.7596C57.7415 33.6079 58.4297 33.5612 59.1063 33.5612C64.2915 33.5437 69.4825 33.5554 74.7668 33.5554L74.7609 33.5262Z" fill="#8A5F0D"/>
<path d="M74.7576 33.5319C69.4733 33.5319 64.2823 33.5261 59.0972 33.5377C58.4264 33.5377 57.7323 33.5844 57.0791 33.736C55.7376 34.051 54.8336 35.3283 54.921 36.6348C55.0144 37.9821 56.0292 39.102 57.3941 39.2886C57.919 39.3645 58.4614 39.3586 58.9922 39.3586C65.1164 39.3586 71.2347 39.3761 77.3589 39.3411C78.2047 39.3411 78.6304 39.5569 78.9571 40.391C82.2816 49.0582 81.7509 57.4687 77.5223 65.7102C77.0906 66.5501 76.5016 66.4509 75.8425 66.4509C67.1461 66.4509 58.4439 66.4509 49.7476 66.4509C49.0651 66.4509 48.3886 66.4567 47.7295 66.6609C46.4872 67.0458 45.5948 68.2532 45.6531 69.4955C45.7114 70.8312 46.7321 72.0035 48.0736 72.2076C48.5985 72.2893 49.141 72.2776 49.6717 72.2776C56.7175 72.2776 63.7632 72.2776 70.809 72.2776H72.4713C71.1298 73.9749 69.59 75.1123 68.0093 76.1563C51.3223 87.1799 29.3511 79.5392 23.0927 60.5367C21.6754 56.2322 21.3371 51.8053 21.9554 47.3026C22.0487 46.6143 22.3403 46.416 22.9877 46.4219C26.7789 46.4394 30.5701 46.3985 34.3554 46.4452C36.076 46.4685 36.4843 47.1684 35.9769 48.9415C34.682 53.4793 36.5251 57.2588 40.7187 58.5828C41.4011 58.7986 42.1477 58.8977 42.8651 58.9036C46.4113 58.9386 49.9575 58.9619 53.5037 58.9036C55.4751 58.8744 56.6708 57.7137 56.6708 56.0281C56.6708 54.36 55.4751 53.1585 53.5212 53.1118C50.1675 53.036 46.8138 53.1002 43.4659 53.0768C41.5003 53.0652 41.057 52.4352 41.5995 50.5222C43.1626 45.0045 39.9838 40.7001 34.2271 40.5893C31.165 40.531 28.1029 40.5426 25.0408 40.5951C23.9384 40.6126 23.7985 40.321 24.2592 39.3703C29.0653 29.4549 36.8284 23.4299 47.7995 22.0884C58.4031 20.7877 67.2278 24.5147 74.2327 32.5637C74.3902 32.7445 74.536 32.9428 74.6818 33.1353C74.7051 33.1644 74.6993 33.2228 74.7518 33.5027L74.7576 33.5319ZM65.1689 58.9036C66.7378 58.8744 68.0268 57.5679 68.0093 56.0223C67.9918 54.4941 66.662 53.1818 65.1164 53.176C63.5124 53.1701 62.1418 54.57 62.2118 56.1506C62.2759 57.7137 63.5882 58.9386 65.1689 58.9036Z" fill="#F5BF5A"/>
<path d="M65.1731 58.9039C63.5924 58.933 62.2801 57.714 62.2159 56.1509C62.146 54.5703 63.5166 53.1705 65.1206 53.1763C66.6662 53.1821 67.996 54.4945 68.0135 56.0226C68.031 57.5682 66.742 58.8747 65.1731 58.9039V58.9039Z" fill="#8A5F0D"/>
</svg>
