<svg width="165" height="166" viewBox="0 0 165 166" fill="none" xmlns="http://www.w3.org/2000/svg">
<path d="M75.5707 79.802C73.6992 77.8135 71.8139 75.8181 69.9355 73.8158C68.5937 72.3847 68.4836 70.8916 69.6258 69.7012C70.7267 68.5521 72.0891 68.5521 73.6097 69.7081C73.7749 69.8319 73.8712 70.1003 74.284 69.9351C74.284 68.0498 74.229 66.1233 74.3047 64.1898C74.3528 62.9788 73.5409 63.3022 72.9354 63.3022C66.0548 63.2884 59.181 63.2953 52.3003 63.2953C41.5802 63.2953 30.8601 63.2953 20.1469 63.2953C14.3603 63.2953 11.0025 59.9169 11.0025 54.0958C11.0025 39.1373 11.0025 24.1718 11.0025 9.21322C10.9956 3.32336 14.3603 0 20.3052 0C58.1351 0 95.965 0 133.795 0C139.217 0 142.072 2.32567 143.022 7.64443C143.187 8.56644 143.724 8.49763 144.336 8.6146C151.031 9.85312 156.598 12.9357 160.54 18.6191C170.104 32.4286 163.98 54.316 144.047 57.4467C143.215 57.5775 142.637 57.7701 142.189 58.644C140.586 61.7884 137.923 63.2953 134.394 63.2953C116.793 63.2953 99.199 63.3159 81.6051 63.254C80.0776 63.254 79.6234 63.6187 79.7611 65.1256C79.9055 66.715 79.7955 68.3251 79.7955 69.9351C80.4078 70.1622 80.5867 69.5774 80.9376 69.3572C82.245 68.5315 83.456 68.6622 84.5225 69.7218C85.5408 70.7264 85.5683 72.3021 84.5225 73.4443C82.5546 75.5911 80.5042 77.669 78.4606 79.802H80.0225C97.9604 79.802 115.905 79.802 133.843 79.802C139.822 79.802 143.077 83.0497 143.077 89.0359C143.077 103.994 143.077 118.96 143.077 133.919C143.077 139.788 139.781 143.09 133.953 143.09C110.738 143.09 87.5225 143.097 64.3071 143.063C63.1442 143.063 62.4768 143.379 61.9057 144.418C59.8622 148.12 57.7154 151.774 55.5893 155.427C54.2682 157.698 53.0296 158.028 50.7797 156.742C49.0939 155.778 47.4288 154.774 45.7361 153.817C44.4082 153.067 42.3646 154.237 42.344 155.772C42.3096 157.836 42.3646 159.9 42.3302 161.964C42.2958 164.118 41.3119 165.088 39.1444 165.102C34.2179 165.122 29.2844 165.122 24.3579 165.102C22.1217 165.095 21.1515 164.118 21.1102 161.827C21.0758 159.934 21.1102 158.042 21.1033 156.15C21.0964 154.086 19.218 152.978 17.4566 153.989C15.7226 154.987 14.0025 156.019 12.2479 156.969C10.4864 157.925 9.17912 157.602 8.16766 155.882C5.58741 151.499 3.04844 147.088 0.536994 142.657C-0.446942 140.923 -0.075386 139.623 1.62414 138.577C3.17917 137.62 4.78925 136.74 6.3718 135.824C8.69747 134.476 8.73187 132.446 6.44749 131.125C4.86494 130.21 3.26174 129.322 1.69983 128.373C-0.0891471 127.279 -0.453823 125.992 0.585159 124.169C3.06908 119.792 5.60805 115.451 8.11949 111.088C8.44289 110.531 8.80756 109.843 9.41306 109.788C11.3121 109.63 11.0163 108.336 11.0163 107.105C11.0025 101.029 11.0025 94.9533 11.0163 88.8776C11.0231 83.1942 14.4291 79.7951 20.1056 79.7951C38.0435 79.7951 55.9883 79.7951 73.9262 79.7951H75.5845L75.5707 79.802ZM135.577 57.5568C135.033 56.9307 134.352 57.0064 133.788 56.8481C121.307 53.3252 113.903 41.6281 116.105 28.8644C117.956 18.1168 125.518 10.5068 136.231 8.62148C137.689 8.3669 137.93 7.67883 136.953 6.50912C136.169 5.56646 135.116 5.49766 133.988 5.49766C96.0476 5.50454 58.1007 5.50454 20.1607 5.50454C17.4497 5.50454 16.5002 6.41967 16.5002 9.07561C16.5002 24.0892 16.5002 39.1097 16.5002 54.1234C16.5002 56.8275 17.4359 57.777 20.085 57.777C58.025 57.777 95.9719 57.777 133.912 57.777C134.435 57.777 135.006 57.9077 135.57 57.5499L135.577 57.5568ZM77.0914 85.3134C58.1145 85.3134 39.1444 85.3134 20.1676 85.3134C17.4566 85.3134 16.507 86.2286 16.5002 88.8845C16.4933 96.2812 16.5552 103.671 16.452 111.068C16.4245 112.747 17.5116 113.104 18.5712 113.476C19.4382 113.772 21.0896 112.079 21.0964 111.068C21.1102 109.004 21.062 106.939 21.1171 104.875C21.1721 102.818 22.1767 101.841 24.234 101.827C29.2225 101.806 34.211 101.806 39.1926 101.827C41.3394 101.834 42.2889 102.825 42.3233 105.013C42.3508 106.96 42.3233 108.907 42.3302 110.861C42.344 112.774 44.2705 113.923 45.915 112.988C47.6558 111.997 49.3691 110.971 51.1237 110.001C52.9677 108.983 54.275 109.293 55.3278 111.088C57.8805 115.423 60.3988 119.786 62.8828 124.162C63.9149 125.985 63.5502 127.279 61.7612 128.373C59.9585 129.474 58.1076 130.499 56.2911 131.586C55.4172 132.109 54.9493 134.565 55.7475 134.992C57.6672 136.017 59.2704 137.627 61.7475 137.62C85.706 137.565 109.671 137.586 133.63 137.586C136.809 137.586 137.566 136.822 137.572 133.643C137.572 118.857 137.572 104.063 137.572 89.2767C137.572 86.0703 136.822 85.3066 133.664 85.3066C114.804 85.3066 95.9444 85.3066 77.0845 85.3066L77.0914 85.3134ZM31.9541 107.325C30.2959 107.325 28.9198 107.366 27.5436 107.311C26.7799 107.283 26.5735 107.566 26.5872 108.295C26.6285 110.07 26.601 111.845 26.5941 113.621C26.5941 114.776 26.3051 115.877 25.1698 116.338C23.6079 116.971 22.2868 117.948 20.9038 118.857C19.5276 119.765 18.179 119.848 16.741 118.919C15.3992 118.052 13.9474 117.35 12.6057 116.49C11.8351 115.994 11.491 116.139 11.0644 116.909C9.77086 119.263 8.44289 121.595 7.03235 123.886C6.53006 124.705 6.75024 125.015 7.49335 125.414C8.95206 126.192 10.3351 127.127 11.8075 127.877C13.163 128.565 13.7548 129.618 13.624 131.063C13.4727 132.666 13.4795 134.256 13.624 135.859C13.7548 137.304 13.1561 138.357 11.8075 139.045C10.2869 139.822 8.84885 140.772 7.34886 141.597C6.73648 141.934 6.54382 142.203 6.95666 142.884C8.4016 145.279 9.79838 147.714 11.1608 150.157C11.5185 150.797 11.8144 150.914 12.4612 150.508C13.8649 149.634 15.3511 148.884 16.7479 147.989C18.1859 147.067 19.5276 147.157 20.9107 148.058C22.1079 148.836 23.1882 149.82 24.5574 150.281C26.0368 150.776 26.5872 151.843 26.5872 153.301C26.5941 155.077 26.6216 156.852 26.5803 158.627C26.5597 159.356 26.773 159.618 27.5367 159.611C30.289 159.57 33.0344 159.563 35.7867 159.611C36.633 159.625 36.8669 159.37 36.8325 158.544C36.7706 156.831 36.8188 155.111 36.8119 153.391C36.8119 152.242 37.0527 151.1 38.1743 150.632C39.8876 149.923 41.3256 148.801 42.8875 147.859C44.0779 147.143 45.2338 147.129 46.438 147.859C47.9035 148.746 49.4242 149.545 50.876 150.453C51.5503 150.872 51.8875 150.845 52.2934 150.109C53.6145 147.707 54.9838 145.327 56.4081 142.987C56.8553 142.244 56.7246 141.934 56.009 141.556C54.4471 140.717 52.9471 139.781 51.392 138.928C50.2705 138.308 49.7751 137.386 49.7957 136.12C49.8164 134.345 49.8164 132.577 49.7957 130.802C49.782 129.536 50.2636 128.614 51.392 127.994C52.9402 127.141 54.4608 126.219 56.0021 125.352C56.5457 125.049 56.9516 124.829 56.4975 124.072C55.025 121.623 53.6145 119.139 52.2108 116.655C51.8806 116.07 51.5641 116.043 51.0274 116.373C49.6099 117.233 48.1444 118.01 46.7476 118.898C45.2614 119.841 43.8715 119.786 42.4472 118.788C41.5114 118.134 40.61 117.315 39.5573 116.971C37.266 116.228 36.6605 114.687 36.7981 112.485C36.9013 110.834 37.4243 108.611 36.5917 107.662C35.6284 106.561 33.3578 107.49 31.9473 107.318L31.9541 107.325ZM139.96 13.9127C128.82 14.2705 120.976 22.3347 121.141 33.5433C121.3 44.339 130.396 52.6371 141.178 52.2587C151.692 51.8871 159.955 42.8941 159.556 32.2428C159.157 21.6191 150.487 13.4999 139.96 13.9127Z" fill="#024D66"/>
<path d="M31.9546 107.318C33.3651 107.49 35.6358 106.561 36.5991 107.662C37.4316 108.612 36.9087 110.834 36.8055 112.486C36.6747 114.681 37.2734 116.222 39.5646 116.972C40.6174 117.316 41.5187 118.135 42.4545 118.788C43.8788 119.786 45.2687 119.841 46.7549 118.898C48.1517 118.011 49.6242 117.233 51.0347 116.373C51.5714 116.043 51.8879 116.071 52.2182 116.655C53.6218 119.146 55.0324 121.63 56.5048 124.073C56.9658 124.837 56.5599 125.05 56.0094 125.353C54.4682 126.22 52.9475 127.135 51.3994 127.995C50.271 128.614 49.7824 129.536 49.8031 130.802C49.8237 132.577 49.8306 134.346 49.8031 136.121C49.7893 137.387 50.2778 138.309 51.3994 138.928C52.9475 139.781 54.4544 140.724 56.0163 141.557C56.7319 141.942 56.8626 142.251 56.4154 142.988C54.9911 145.334 53.6287 147.715 52.3008 150.109C51.8948 150.845 51.5508 150.873 50.8833 150.453C49.4315 149.545 47.9109 148.747 46.4453 147.859C45.2412 147.13 44.0784 147.144 42.8949 147.859C41.333 148.802 39.8949 149.923 38.1816 150.632C37.0601 151.1 36.8192 152.242 36.8192 153.391C36.8192 155.111 36.778 156.832 36.8399 158.545C36.8674 159.371 36.6335 159.625 35.794 159.611C33.0486 159.556 30.2964 159.57 27.5441 159.611C26.7803 159.625 26.5739 159.357 26.5877 158.627C26.629 156.852 26.6014 155.077 26.5946 153.302C26.5946 151.85 26.0372 150.784 24.5648 150.281C23.1886 149.82 22.1152 148.829 20.918 148.059C19.535 147.164 18.1933 147.068 16.7552 147.99C15.3653 148.884 13.8722 149.628 12.4685 150.508C11.8218 150.907 11.5259 150.797 11.1681 150.157C9.79884 147.715 8.40895 145.286 6.96401 142.885C6.55117 142.196 6.73695 141.935 7.35621 141.598C8.85619 140.772 10.2943 139.823 11.8149 139.045C13.1704 138.35 13.7621 137.304 13.6314 135.859C13.4869 134.256 13.48 132.667 13.6314 131.064C13.769 129.619 13.1704 128.566 11.8149 127.878C10.3424 127.128 8.9594 126.199 7.5007 125.414C6.75759 125.015 6.53741 124.706 7.0397 123.887C8.44335 121.603 9.7782 119.263 11.0718 116.91C11.4984 116.139 11.8424 115.995 12.613 116.49C13.9548 117.357 15.4066 118.059 16.7483 118.919C18.1864 119.841 19.535 119.759 20.9111 118.857C22.2873 117.949 23.6152 116.972 25.1771 116.339C26.3125 115.878 26.5946 114.777 26.6014 113.621C26.6014 111.846 26.6358 110.071 26.5946 108.295C26.5739 107.566 26.7803 107.284 27.551 107.311C28.9202 107.366 30.3032 107.325 31.9615 107.325L31.9546 107.318ZM19.4937 133.451C19.4937 140.277 25.0189 145.857 31.7688 145.843C38.4224 145.829 43.9545 140.263 43.982 133.554C44.0095 126.722 38.5119 121.107 31.7757 121.087C25.0189 121.066 19.4937 126.625 19.4937 133.458V133.451Z" fill="#D1F3FF"/>
<path d="M139.964 13.9125C150.491 13.5066 159.161 21.6189 159.56 32.2427C159.959 42.8871 151.695 51.887 141.182 52.2585C130.4 52.637 121.303 44.3389 121.145 33.5431C120.98 22.3345 128.824 14.2703 139.964 13.9125ZM140.335 41.277C141.12 41.277 141.794 40.9742 142.338 40.4375C145.984 36.7977 149.645 33.1715 153.257 29.4973C154.255 28.4858 154.372 27.2542 153.601 26.0432C152.604 24.4813 150.684 24.3643 149.184 25.8367C146.48 28.4789 143.81 31.1486 141.175 33.8596C140.535 34.5202 140.143 34.5339 139.551 33.8596C138.794 33.0064 137.961 32.2151 137.136 31.4238C135.718 30.0684 134.239 29.9514 133.035 31.0798C131.776 32.2564 131.838 33.8458 133.255 35.3046C134.851 36.949 136.489 38.5453 138.106 40.1692C138.725 40.7953 139.413 41.277 140.342 41.2839L140.335 41.277Z" fill="#D1F3FF"/>
<path d="M64.5862 33.0204C54.5542 33.0204 44.5222 33.0204 34.4902 33.0204C34.0292 33.0204 33.5682 33.041 33.1141 33.0135C31.4971 32.9034 30.3549 31.7819 30.3343 30.3025C30.3136 28.8232 31.4489 27.6535 33.0452 27.5296C33.4443 27.4952 33.8503 27.5227 34.2494 27.5227C54.5405 27.5227 74.8316 27.5227 95.1295 27.5227C95.6456 27.5227 96.1754 27.4608 96.6708 27.5709C98.1364 27.8805 99.0034 28.7957 98.9827 30.33C98.9621 31.7819 98.1158 32.6626 96.7396 32.9722C96.1892 33.0961 95.5974 33.0273 95.0263 33.0273C84.8773 33.0273 74.7352 33.0273 64.5862 33.0273V33.0204Z" fill="#024D66"/>
<path d="M53.759 13.7617C60.2956 13.7617 66.8254 13.7617 73.362 13.7617C73.9331 13.7617 74.5386 13.7273 75.0615 13.9062C76.4033 14.3672 77.1257 15.3649 76.9606 16.803C76.7955 18.2273 75.901 19.1011 74.4836 19.225C73.2313 19.3351 71.9652 19.2594 70.6992 19.2594C58.6649 19.2594 46.6237 19.2594 34.5894 19.2594C34.1284 19.2594 33.6743 19.28 33.2133 19.2594C31.5069 19.1699 30.3165 18.0071 30.3372 16.4727C30.3647 14.9383 31.5551 13.7824 33.2959 13.7755C38.9105 13.748 44.532 13.7617 50.1466 13.7617C51.3507 13.7617 52.5549 13.7617 53.759 13.7617Z" fill="#024D66"/>
<path d="M44.1373 46.7821C40.6419 46.7821 37.1465 46.7959 33.6443 46.7821C31.6282 46.7752 30.3691 45.7294 30.3347 44.0849C30.3002 42.3854 31.6007 41.2913 33.7131 41.2845C40.5937 41.2776 47.4675 41.2776 54.3482 41.2845C56.5087 41.2845 57.7404 42.3234 57.7197 44.0642C57.6991 45.7982 56.4743 46.7752 54.2794 46.7821C50.8941 46.789 47.5157 46.7821 44.1304 46.7821H44.1373Z" fill="#024D66"/>
<path d="M53.6025 99.0609C47.0659 99.0609 40.5361 99.0609 33.9995 99.0609C33.4284 99.0609 32.8229 99.0953 32.3 98.9164C30.9513 98.4623 30.222 97.4508 30.394 96.0265C30.5729 94.5334 31.5156 93.6527 33.0362 93.5839C34.5775 93.5151 36.1325 93.5633 37.6806 93.5633C49.3709 93.5633 61.068 93.5633 72.7583 93.5633C73.2193 93.5633 73.6734 93.5426 74.1344 93.5633C75.8752 93.6527 77.0106 94.7674 76.9899 96.3431C76.9693 97.9187 75.8271 99.0334 74.0656 99.0472C69.0771 99.0816 64.0887 99.0609 59.1071 99.0609C57.2699 99.0609 55.4397 99.0609 53.6025 99.0609Z" fill="#024D66"/>
<path d="M79.8063 112.823C74.5426 112.823 69.272 112.823 64.0083 112.823C61.8616 112.823 60.568 111.791 60.5405 110.112C60.5129 108.419 61.8134 107.325 63.9326 107.325C74.522 107.318 85.1113 107.318 95.7007 107.325C97.9025 107.325 99.0653 108.323 99.0378 110.119C99.0103 111.873 97.8268 112.816 95.6044 112.823C90.3407 112.83 85.0701 112.823 79.8063 112.823Z" fill="#024D66"/>
<path d="M79.6846 126.577C77.1594 126.577 74.6411 126.591 72.1159 126.577C70.1274 126.563 68.8613 125.469 68.8613 123.818C68.8613 122.173 70.1343 121.086 72.1296 121.079C77.2902 121.065 82.4507 121.065 87.6043 121.079C89.524 121.086 90.7006 122.118 90.7487 123.742C90.7969 125.435 89.5859 126.549 87.5905 126.57C84.9552 126.597 82.3199 126.57 79.6777 126.57L79.6846 126.577Z" fill="#024D66"/>
<path d="M19.498 133.45C19.498 126.618 25.0301 121.051 31.78 121.079C38.5162 121.099 44.0139 126.721 43.9864 133.546C43.9588 140.255 38.4268 145.822 31.7732 145.835C25.0232 145.856 19.498 140.269 19.498 133.443V133.45ZM38.5025 133.519C38.5231 129.686 35.475 126.569 31.7112 126.583C28.0232 126.597 25.0026 129.652 24.9751 133.395C24.9475 137.221 28.0094 140.351 31.7594 140.338C35.4474 140.324 38.4818 137.255 38.5025 133.519Z" fill="#024D66"/>
<path d="M140.333 41.2772C139.404 41.2704 138.716 40.7818 138.097 40.1626C136.48 38.5387 134.842 36.9424 133.246 35.2979C131.828 33.8392 131.773 32.2498 133.026 31.0732C134.23 29.9448 135.709 30.0549 137.126 31.4172C137.952 32.2085 138.785 32.9998 139.542 33.853C140.14 34.5273 140.525 34.5135 141.165 33.853C143.801 31.142 146.47 28.4723 149.174 25.8301C150.674 24.3645 152.594 24.4746 153.592 26.0365C154.369 27.2544 154.246 28.4792 153.248 29.4906C149.629 33.158 145.975 36.791 142.328 40.4309C141.785 40.9745 141.11 41.2772 140.326 41.2704L140.333 41.2772Z" fill="#024D66"/>
<path d="M38.4983 133.519C38.4776 137.255 35.4433 140.317 31.7552 140.338C28.0053 140.352 24.9434 137.221 24.9709 133.395C24.9984 129.652 28.019 126.597 31.7071 126.584C35.4708 126.57 38.5189 129.687 38.4983 133.519Z" fill="#D1F3FF"/>
</svg>
