<svg width="161" height="161" viewBox="0 0 161 161" fill="none" xmlns="http://www.w3.org/2000/svg">
<path d="M92.3077 113.919C112.837 113.919 133.365 113.919 153.888 113.919C156.151 113.919 156.207 113.919 156.132 111.688C156.075 110.148 156.836 108.212 155.755 107.162C154.749 106.188 152.857 106.854 151.355 106.854C138.369 106.822 125.383 106.835 112.397 106.835C111.875 106.835 111.341 106.885 110.831 106.797C109.53 106.577 108.738 105.773 108.757 104.447C108.77 103.127 109.549 102.328 110.869 102.133C111.334 102.064 111.812 102.108 112.283 102.108C123.805 102.108 135.326 102.089 146.848 102.133C147.973 102.133 148.331 101.926 148.331 100.707C148.287 74.2127 148.3 47.7125 148.3 21.2187C148.3 17.925 146.817 16.561 143.246 16.561C112.139 16.561 81.0376 16.561 49.9301 16.561C49.4084 16.561 48.8741 16.5925 48.3649 16.5107C47.0575 16.3033 46.3095 15.4988 46.253 14.1788C46.1964 12.9531 47.1895 11.9285 48.5347 11.872C50.0998 11.8028 51.6775 11.8468 53.2489 11.8405C56.7562 11.8405 60.2699 11.784 63.771 11.872C65.047 11.9034 65.3864 11.4823 65.311 10.2754C65.2104 8.71029 65.2544 7.1326 65.2984 5.56748C65.3801 2.31154 67.6366 0.0361423 70.8675 0.0235711C77.2536 -0.00785702 83.6461 -0.00785702 90.0323 0.0235711C93.2631 0.0424279 95.5196 2.31154 95.6076 5.5612C95.6454 6.97546 95.6076 8.38973 95.6202 9.80399C95.6391 12.0731 95.3437 11.8405 97.6002 11.8405C112.893 11.8468 128.18 11.8531 143.473 11.8342C145.566 11.8342 147.539 12.1234 149.274 13.3742C151.952 15.3039 153.039 17.9627 153.039 21.2312C153.014 46.996 153.027 72.7544 153.027 98.5192C153.027 99.2546 153.108 99.9963 153.008 100.713C152.832 101.939 153.335 102.159 154.472 102.146C158.828 102.102 160.89 104.214 160.89 108.576C160.89 110.097 160.915 111.612 160.884 113.133C160.821 116.031 158.904 118.181 156.025 118.583C155.352 118.677 154.667 118.677 153.988 118.677C142.517 118.677 131.052 118.715 119.587 118.639C117.997 118.627 117.959 119.149 118.217 120.406C120.712 132.587 123.17 144.781 125.634 156.969C126.219 159.861 125.395 160.879 122.491 160.885C118.355 160.885 114.219 160.885 110.083 160.885C107.978 160.885 107.28 160.301 106.871 158.258C106.136 154.568 105.357 150.885 104.684 147.189C104.521 146.309 104.175 146.114 103.358 146.12C88.1215 146.139 72.8789 146.152 57.6425 146.101C56.5614 146.101 56.4797 146.673 56.3351 147.384C55.5871 151.073 54.858 154.763 54.1037 158.446C53.714 160.338 53.0352 160.885 51.0929 160.885C46.7998 160.891 42.5067 160.898 38.2137 160.885C35.7874 160.885 34.8697 159.747 35.3411 157.403C37.8617 144.901 40.3634 132.399 42.9216 119.909C43.129 118.903 42.9782 118.646 41.941 118.658C38.1194 118.709 34.2977 118.69 30.4761 118.671C29.8538 118.671 29.2001 118.646 28.6218 118.451C27.5658 118.093 27.0253 117.244 27.1007 116.15C27.1761 115.063 27.7733 114.265 28.8858 114.045C29.5458 113.913 30.2372 113.932 30.9161 113.932C51.3883 113.932 71.8669 113.932 92.3391 113.932L92.3077 113.919ZM101.447 131.33C100.661 127.389 99.8944 123.655 99.1842 119.909C99.0145 119.004 98.7002 118.639 97.6882 118.646C86.2232 118.69 74.7583 118.683 63.287 118.658C62.3944 118.658 62.0236 118.878 61.8602 119.821C61.263 123.165 60.6156 126.503 59.8425 129.809C59.5345 131.11 59.8173 131.362 61.0996 131.355C73.5577 131.311 86.0221 131.33 98.4802 131.33H101.447ZM103.735 118.677C104.891 124.422 106.017 129.998 107.135 135.573C108.43 142.022 109.706 148.477 111.033 154.92C111.127 155.366 110.894 156.177 111.837 156.171C114.741 156.158 117.645 156.171 120.618 156.171C119.091 148.565 117.595 141.148 116.105 133.725C115.187 129.168 114.301 124.611 113.346 120.06C113.239 119.551 113.459 118.683 112.459 118.683C109.593 118.683 106.721 118.683 103.729 118.683L103.735 118.677ZM45.0399 156.165C46.1901 156.165 47.3467 156.102 48.4907 156.183C49.4461 156.246 49.8106 155.963 50.0118 154.958C52.3186 143.273 54.6694 131.6 57.0705 119.934C57.3094 118.771 56.9448 118.627 55.9454 118.652C53.6951 118.709 51.4449 118.715 49.1946 118.652C48.2267 118.621 47.8872 118.903 47.6861 119.903C45.373 131.588 42.997 143.254 40.6211 154.926C40.4451 155.794 40.4388 156.297 41.5828 156.19C42.7267 156.083 43.8833 156.165 45.0336 156.165H45.0399ZM57.5482 141.393H59.3396C72.7406 141.393 86.1352 141.393 99.5362 141.393C100.787 141.393 102.585 141.833 103.157 141.192C103.892 140.369 102.824 138.791 102.729 137.509C102.648 136.415 102.189 136.007 100.976 136.013C87.3672 136.069 73.7588 136.057 60.1505 136.032C59.0819 136.032 58.4094 136.12 58.3214 137.446C58.2396 138.735 57.8374 139.998 57.5545 141.393H57.5482ZM80.3965 11.8405C83.4827 11.8405 86.5752 11.8028 89.6614 11.8594C90.6169 11.8782 90.9563 11.6205 90.906 10.6337C90.8243 9.11886 90.8494 7.59774 90.8997 6.08291C90.9311 5.07092 90.5352 4.69378 89.5169 4.70007C83.445 4.7315 77.3731 4.72521 71.3012 4.70007C70.3583 4.70007 69.9749 5.05206 69.9938 5.99491C70.0252 7.56631 70.0503 9.13772 69.9875 10.7028C69.9498 11.5954 70.2389 11.872 71.1377 11.8531C74.224 11.8028 77.3102 11.8342 80.4027 11.8342L80.3965 11.8405Z" fill="#582426"/>
<path d="M53.6502 106.835C38.0995 106.835 22.5489 106.835 7.0046 106.835C5.49186 106.835 4.73549 107.617 4.73549 109.18C4.73549 110.23 4.80463 111.279 4.71663 112.323C4.61606 113.605 5.18806 113.944 6.37604 113.932C10.512 113.888 14.6479 113.913 18.7838 113.919C19.3558 113.919 19.9467 113.913 20.4998 114.026C21.5998 114.252 22.2284 115 22.3101 116.1C22.3918 117.282 21.8198 118.093 20.6947 118.495C20.5941 118.533 20.4935 118.571 20.393 118.571C14.9559 118.665 9.50627 118.998 4.08807 118.395C1.75611 118.137 0.0967054 115.736 0.0275636 113.266C-0.0164357 111.487 0.00242117 109.708 0.0149924 107.929C0.0464205 104.422 2.31553 102.159 5.81662 102.115C7.19107 102.098 7.8783 101.419 7.8783 100.078C7.8783 73.8988 7.95373 47.7255 7.81544 21.5459C7.7903 16.2785 11.3668 11.602 17.577 11.7969C24.378 12.0106 31.1854 11.8472 37.9927 11.8472C38.5144 11.8472 39.0487 11.8283 39.5578 11.91C40.7395 12.1112 41.4121 12.8655 41.4812 14.0471C41.5504 15.2288 40.9846 16.0774 39.8281 16.398C39.2875 16.5488 38.6904 16.5551 38.1247 16.5551C31.2671 16.5677 24.4095 16.5551 17.5519 16.5614C13.9691 16.5614 12.5988 17.9317 12.5988 21.4767C12.5988 47.8135 12.6114 74.1439 12.5611 100.481C12.5611 101.933 12.9885 102.14 14.2959 102.14C42.9835 102.102 71.6773 102.109 100.371 102.109C102.892 102.109 104.042 102.863 104.023 104.497C103.998 106.119 102.867 106.835 100.315 106.835C84.764 106.835 69.2134 106.835 53.669 106.835H53.6502Z" fill="#582426"/>
<path d="M65.8049 46.1414C65.8614 55.7961 58.0044 63.7348 48.3308 63.7977C38.607 63.8605 30.6243 55.9721 30.5677 46.2419C30.5111 36.6375 38.4498 28.6296 48.0731 28.5856C57.8535 28.5416 65.7483 36.3609 65.8049 46.1351V46.1414ZM61.0718 46.2168C61.0906 39.1078 55.3519 33.3313 48.268 33.3124C41.1778 33.2936 35.395 39.0009 35.3008 46.0911C35.2065 53.1624 41.0961 59.0835 48.224 59.0772C55.3204 59.0772 61.0592 53.3258 61.0718 46.2105V46.2168Z" fill="#582426"/>
<path d="M82.5162 67.619C79.3671 67.6442 76.2369 67.4367 73.1255 66.959C71.3215 66.6825 70.3284 65.6768 70.5044 64.2814C70.6993 62.7539 71.8998 62.006 73.8043 62.2762C80.8128 63.2505 87.8024 63.1688 94.7103 61.566C103.001 59.6426 109.865 55.6575 113.85 47.7376C115.271 44.9154 116.138 41.9171 116.597 38.7932C116.685 38.1772 116.748 37.5172 117.024 36.9703C117.584 35.8515 118.558 35.4241 119.784 35.7824C121.016 36.1469 121.581 37.0835 121.43 38.2966C120.18 48.4039 115.761 56.594 106.779 61.8865C99.2988 66.2927 91.0458 67.5876 82.5099 67.619H82.5162Z" fill="#582426"/>
<path d="M75.6543 81.9565C75.6543 76.4314 80.0982 71.9687 85.5919 71.9561C91.1609 71.9435 95.6363 76.4503 95.5986 82.0445C95.5609 87.5507 91.0541 92.0198 85.5856 91.9883C80.0919 91.9569 75.648 87.469 75.6543 81.9628V81.9565ZM90.8718 81.9439C90.8655 79.0023 88.5335 76.6766 85.6044 76.6829C82.6816 76.6892 80.3748 79.0337 80.3748 81.9754C80.3748 84.8919 82.7508 87.2804 85.6359 87.2616C88.5272 87.249 90.8718 84.8542 90.8655 81.9376L90.8718 81.9439Z" fill="#582426"/>
<path d="M120.265 78.7953C121.396 77.5822 122.402 76.4508 123.47 75.3759C124.746 74.0937 126.161 73.9931 127.185 75.0365C128.222 76.1051 128.09 77.3873 126.777 78.7387C125.978 79.5622 125.193 80.417 124.325 81.165C123.615 81.7747 123.715 82.177 124.357 82.7553C125.287 83.5912 126.167 84.4964 127.022 85.4141C128.122 86.5958 128.153 87.8969 127.154 88.89C126.186 89.858 124.853 89.7889 123.671 88.7329C122.477 87.6643 121.497 85.6026 120.164 85.6655C118.995 85.7221 117.926 87.6518 116.782 88.7203C115.62 89.8077 114.262 89.858 113.294 88.9089C112.25 87.8906 112.313 86.5706 113.508 85.3135C114.406 84.3644 115.33 83.4341 116.28 82.5415C116.782 82.0701 116.757 81.7621 116.254 81.297C115.255 80.373 114.293 79.4113 113.369 78.4119C112.282 77.2428 112.294 75.9165 113.332 74.9422C114.274 74.0622 115.638 74.0811 116.707 75.1057C117.876 76.2245 118.963 77.4313 120.258 78.7702L120.265 78.7953Z" fill="#582426"/>
<path d="M55.872 87.2178C55.7651 88.1417 55.4194 88.9212 54.508 89.3423C53.5526 89.7823 52.66 89.6629 51.8995 88.9589C50.9064 88.0349 49.9195 87.092 49.0081 86.0863C48.4298 85.4515 48.0338 85.3509 47.4241 86.0549C46.6007 86.9978 45.683 87.8652 44.7716 88.7263C43.6088 89.8263 42.2762 89.8829 41.2894 88.9274C40.2397 87.9029 40.3025 86.5892 41.4905 85.3446C42.3202 84.4772 43.1373 83.5784 44.0488 82.8053C44.8345 82.139 44.7087 81.7116 44.011 81.0956C43.0745 80.2659 42.1945 79.3607 41.3459 78.4368C40.2711 77.2676 40.2962 75.9225 41.3271 74.9608C42.2699 74.0808 43.6088 74.1248 44.7025 75.1368C45.6579 76.0231 46.5944 76.9471 47.4744 77.9088C48.0024 78.487 48.3544 78.575 48.9138 77.9339C49.7372 76.9911 50.6549 76.1299 51.5601 75.2625C52.7606 74.1122 54.1875 74.0431 55.168 75.0551C56.1486 76.0671 56.092 77.3242 54.9606 78.531C54.1372 79.4047 53.32 80.3036 52.4023 81.0767C51.5789 81.7681 51.6983 82.2207 52.44 82.8807C53.452 83.7858 54.3697 84.7915 55.3063 85.7783C55.6771 86.1681 55.7966 86.6898 55.872 87.224V87.2178Z" fill="#582426"/>
<path d="M93.2887 41.276C93.2384 42.0743 92.9053 42.6966 92.3585 43.2308C91.535 44.0354 90.7745 44.9091 89.9071 45.6571C89.1151 46.3359 88.9579 46.8136 89.8631 47.5616C90.8311 48.3536 91.6859 49.2902 92.5282 50.2142C93.5401 51.3267 93.5213 52.6216 92.5533 53.577C91.6042 54.5198 90.2905 54.5198 89.1842 53.5141C87.9585 52.3953 86.7831 51.2324 85.5826 50.0884C84.426 51.2199 83.2883 52.3764 82.1003 53.4701C80.9375 54.545 79.5735 54.5324 78.6181 53.5078C77.7004 52.521 77.7381 51.2764 78.7878 50.1513C79.6427 49.2336 80.5164 48.3285 81.4529 47.4925C82.1318 46.8891 82.2763 46.4742 81.5032 45.8079C80.5541 44.9971 79.6929 44.0668 78.8318 43.1554C77.7193 41.9737 77.6815 40.6726 78.6747 39.6795C79.6552 38.6989 80.9626 38.7555 82.1569 39.824C83.3512 40.8989 84.382 43.0046 85.6454 42.9103C86.8837 42.816 87.9837 40.88 89.1528 39.7612C89.9385 39.0132 90.8122 38.7241 91.8682 39.2018C92.7796 39.6166 93.1567 40.3646 93.2887 41.2697V41.276Z" fill="#582426"/>
<path d="M103.737 118.671C106.729 118.671 109.602 118.671 112.468 118.671C113.467 118.671 113.247 119.545 113.354 120.047C114.303 124.598 115.196 129.155 116.114 133.712C117.603 141.136 119.099 148.553 120.627 156.158C117.654 156.158 114.75 156.152 111.846 156.158C110.903 156.158 111.135 155.354 111.041 154.907C109.715 148.465 108.439 142.009 107.144 135.56C106.025 129.985 104.9 124.41 103.744 118.665L103.737 118.671Z" fill="#FEC4C5"/>
<path d="M45.0399 156.158C43.8897 156.158 42.7268 156.076 41.5891 156.183C40.4452 156.29 40.4514 155.787 40.6274 154.92C43.0034 143.247 45.3794 131.581 47.6925 119.896C47.8936 118.897 48.233 118.62 49.201 118.646C51.4513 118.715 53.7015 118.702 55.9518 118.646C56.9512 118.62 57.3158 118.765 57.0769 119.928C54.6821 131.594 52.325 143.266 50.0181 154.951C49.817 155.957 49.4524 156.24 48.497 156.177C47.353 156.102 46.1965 156.158 45.0462 156.158H45.0399Z" fill="#FEC4C5"/>
<path d="M57.5463 141.393C57.8355 139.998 58.2315 138.728 58.3132 137.446C58.4012 136.12 59.0737 136.025 60.1423 136.032C73.7506 136.057 87.359 136.069 100.967 136.013C102.18 136.013 102.639 136.409 102.721 137.509C102.815 138.791 103.884 140.369 103.148 141.192C102.583 141.827 100.779 141.393 99.528 141.393C86.127 141.393 72.7324 141.393 59.3314 141.393H57.54H57.5463Z" fill="#FEC4C5"/>
<path d="M80.3989 11.8407C77.3127 11.8407 74.2202 11.8093 71.1339 11.8596C70.2351 11.8721 69.946 11.6019 69.9837 10.7093C70.0465 9.14419 70.0277 7.5665 69.99 6.00138C69.9711 5.06482 70.3545 4.70654 71.2974 4.70654C77.3693 4.73169 83.4412 4.73169 89.5131 4.70654C90.5314 4.70654 90.9274 5.07739 90.8959 6.08938C90.8456 7.60421 90.8268 9.12533 90.9022 10.6402C90.9525 11.627 90.6194 11.8784 89.6577 11.8659C86.5714 11.8093 83.4852 11.847 80.3927 11.847L80.3989 11.8407Z" fill="#FEC4C5"/>
<path d="M61.072 46.2165C61.0531 53.3318 55.3143 59.0769 48.2241 59.0832C41.0963 59.0832 35.2066 53.1684 35.3009 46.0971C35.3952 39.0006 41.178 33.2995 48.2681 33.3184C55.3583 33.3373 61.0908 39.1137 61.072 46.2228V46.2165ZM45.955 53.7404C46.8162 53.7781 47.4322 53.3192 47.9916 52.741C50.9081 49.7427 53.8435 46.7571 56.7474 43.7462C57.9166 42.5331 57.9543 41.1126 56.9234 40.1446C55.9177 39.1955 54.5161 39.3212 53.3281 40.5154C51.8132 42.0366 50.3298 43.5828 48.8276 45.1165C47.9162 46.0531 47.055 47.637 46.0556 47.7376C44.9053 47.8508 44.1071 46.1034 43.0699 45.2548C43.0322 45.2234 42.9945 45.1794 42.9568 45.1479C41.706 44.0417 40.298 44.004 39.3489 45.0474C38.406 46.0845 38.4877 47.3479 39.6631 48.5233C41.1403 50.0067 42.6614 51.4461 44.1636 52.8981C44.6665 53.3821 45.2196 53.7529 45.955 53.7404Z" fill="#FEC4C5"/>
<path d="M90.8716 81.9442C90.8778 84.8608 88.5333 87.2556 85.6419 87.2682C82.7568 87.2807 80.3871 84.8985 80.3809 81.982C80.3809 79.034 82.6877 76.6958 85.6105 76.6895C88.5396 76.6832 90.8653 79.0089 90.8778 81.9505L90.8716 81.9442Z" fill="#FEC4C5"/>
<path d="M45.9562 53.7405C45.2208 53.7531 44.6677 53.3823 44.1648 52.8983C42.6626 51.44 41.1414 50.0006 39.6643 48.5235C38.4952 47.3481 38.4072 46.0847 39.35 45.0475C40.2992 43.9978 41.7009 44.0418 42.958 45.1481C42.9957 45.1858 43.0334 45.2235 43.0711 45.255C44.102 46.1035 44.9065 47.8509 46.0568 47.7378C47.0562 47.6372 47.9111 46.0532 48.8288 45.1167C50.331 43.583 51.8144 42.0367 53.3293 40.5156C54.5172 39.3213 55.9189 39.1956 56.9246 40.1448C57.9555 41.119 57.9178 42.5333 56.7486 43.7464C53.8447 46.7572 50.9093 49.7429 47.9928 52.7411C47.4271 53.3194 46.8174 53.7783 45.9562 53.7405Z" fill="#582426"/>
</svg>
